<svg xmlns="http://www.w3.org/2000/svg" xmlns:xlink="http://www.w3.org/1999/xlink" width="250" height="111" viewBox="0 0 250 111">
  <defs>
    <clipPath id="clip-path">
      <rect id="사각형_5772" data-name="사각형 5772" width="250" height="111" transform="translate(125 339)" fill="#c22e06"/>
    </clipPath>
    <clipPath id="clip-path-2">
      <rect id="사각형_5771" data-name="사각형 5771" width="132.286" height="113.15" transform="translate(0 0)" fill="none"/>
    </clipPath>
  </defs>
  <g id="마스크_그룹_1" data-name="마스크 그룹 1" transform="translate(-125 -339)" clip-path="url(#clip-path)">
    <g id="그룹_3934" data-name="그룹 3934" transform="translate(250 351.852)">
      <g id="그룹_3933" data-name="그룹 3933" transform="translate(0 -0.002)" clip-path="url(#clip-path-2)">
        <path id="패스_17513" data-name="패스 17513" d="M120.613,1066.986c-.331.378-3.311,14.568-13.736,26.294l-3.369-23.256Z" transform="translate(-98.286 -1013.151)" fill="#d3a97a"/>
        <path id="패스_17514" data-name="패스 17514" d="M.008,945.93l.8-12.6a9.965,9.965,0,0,1,.516-2.051A5.025,5.025,0,0,1,3.6,928.635l13.855-7.677-2.364,8.287L8,932.739s-.951.483-.461,2.75l.837,6.082a5,5,0,0,0,4.034,4.251,3.979,3.979,0,0,0,1.153.05l-5.044,9.775-5.7-4.41S-.168,949.169.008,945.93" transform="translate(0 -874.491)" fill="#edbe85"/>
        <path id="패스_17515" data-name="패스 17515" d="M175.893,83.744l-52.421,7.928a2.15,2.15,0,0,1-2.448-1.8L109.006,10.4a2.15,2.15,0,0,1,1.8-2.447L163.232.023a2.15,2.15,0,0,1,2.447,1.8L177.7,81.3a2.15,2.15,0,0,1-1.8,2.447" transform="translate(-103.482 0.002)" fill="#3d4f65"/>
        <rect id="사각형_5709" data-name="사각형 5709" width="53.076" height="74.722" transform="translate(8.203 14.266) rotate(-8.6)" fill="#fff"/>
        <rect id="사각형_5710" data-name="사각형 5710" width="23.191" height="4.964" transform="translate(21.462 6.405) rotate(-8.6)" fill="#bcbcbc"/>
        <path id="패스_17516" data-name="패스 17516" d="M412.5,99.831a1.1,1.1,0,0,1,1.247.919l.409,2.7a1.1,1.1,0,0,1-.919,1.247l-24.5,3.705a1.1,1.1,0,0,1-1.247-.919l-.409-2.7a1.1,1.1,0,0,1,.919-1.247Zm-.1-.69-24.5,3.705a1.8,1.8,0,0,0-1.505,2.042l.409,2.7a1.8,1.8,0,0,0,2.042,1.505l24.5-3.705a1.8,1.8,0,0,0,1.505-2.042l-.409-2.7a1.8,1.8,0,0,0-2.042-1.505" transform="translate(-366.871 -94.119)" fill="#8c8c8c"/>
        <rect id="사각형_5711" data-name="사각형 5711" width="24.315" height="1.483" transform="matrix(0.989, -0.15, 0.15, 0.989, 21.151, 8.236)" fill="#fff"/>
        <rect id="사각형_5712" data-name="사각형 5712" width="24.315" height="0.766" transform="matrix(0.989, -0.15, 0.15, 0.989, 21.258, 8.946)" fill="#a5a5a5"/>
        <path id="패스_17517" data-name="패스 17517" d="M1072.933,693.853c.438-.017,11.689,5.765,25.363,5.147l-13.9-15.065Z" transform="translate(-1018.799 -649.427)" fill="#d3a97a"/>
        <path id="패스_17518" data-name="패스 17518" d="M1053.574,633.492l-8.976-6.385a8.7,8.7,0,0,0-1.673-.778,4.385,4.385,0,0,0-3.042.091l-12.817,5.167,6.914,2.953,6.265-2.884s.85-.379,2.117,1.2l3.66,3.91a4.36,4.36,0,0,1,.662,5.069,3.471,3.471,0,0,1-.6.808l9.394,1.956.148-6.288s.239-3.158-2.052-4.82" transform="translate(-975.246 -594.51)" fill="#edbe85"/>
        <path id="패스_17519" data-name="패스 17519" d="M351.265,776.127l.56,3.7,3.688-.558a3.725,3.725,0,1,1-4.248-3.143" transform="translate(-330.537 -736.968)" fill="#f55f13"/>
        <path id="패스_17520" data-name="패스 17520" d="M418.553,764.393a3.668,3.668,0,0,1,4.173,3.135.186.186,0,0,0,.018.035l-3.629.549Z" transform="translate(-397.435 -725.785)" fill="#ff9566"/>
        <path id="패스_17521" data-name="패스 17521" d="M264.291,373.978a8.043,8.043,0,1,0,2.579,15.877,8.286,8.286,0,0,0,3.47-1.369l-5.027-6.531Z" transform="translate(-244.482 -355.109)" fill="#606c7a"/>
        <path id="패스_17522" data-name="패스 17522" d="M413.077,344.628l1.027,8.635,8.624,1.131a8.7,8.7,0,0,0-9.651-9.766" transform="translate(-392.235 -327.181)" fill="#e1dbd0"/>
        <path id="패스_17523" data-name="패스 17523" d="M438.255,530.588l-9.757-1.8,6.893,7.064a9.979,9.979,0,0,0,2.863-5.265" transform="translate(-406.878 -502.109)" fill="#343f42"/>
        <rect id="사각형_5713" data-name="사각형 5713" width="2.597" height="7.277" transform="matrix(0.989, -0.15, 0.15, 0.989, 38.806, 72.666)" fill="#343f42"/>
        <rect id="사각형_5714" data-name="사각형 5714" width="2.597" height="12.453" transform="matrix(0.989, -0.15, 0.15, 0.989, 41.752, 66.986)" fill="#343f42"/>
        <rect id="사각형_5715" data-name="사각형 5715" width="2.597" height="13.784" transform="matrix(0.989, -0.15, 0.15, 0.989, 45.273, 65.108)" fill="#343f42"/>
        <rect id="사각형_5716" data-name="사각형 5716" width="2.597" height="8.757" transform="translate(49.745 69.515) rotate(-8.6)" fill="#343f42"/>
        <rect id="사각형_5717" data-name="사각형 5717" width="2.597" height="16.248" transform="matrix(0.989, -0.15, 0.15, 0.989, 52.345, 61.546)" fill="#343f42"/>
        <rect id="사각형_5718" data-name="사각형 5718" width="2.597" height="18.614" transform="matrix(0.989, -0.15, 0.15, 0.989, 55.711, 58.644)" fill="#343f42"/>
        <rect id="사각형_5719" data-name="사각형 5719" width="2.597" height="9.102" transform="matrix(0.989, -0.15, 0.15, 0.989, 60.854, 67.487)" fill="#343f42"/>
        <rect id="사각형_5720" data-name="사각형 5720" width="2.597" height="11.615" transform="matrix(0.989, -0.15, 0.15, 0.989, 64.198, 64.439)" fill="#343f42"/>
        <rect id="사각형_5721" data-name="사각형 5721" width="2.597" height="9.647" transform="matrix(0.989, -0.15, 0.15, 0.989, 34.731, 70.886)" fill="#343f42"/>
        <rect id="사각형_5722" data-name="사각형 5722" width="2.597" height="9.647" transform="matrix(0.989, -0.15, 0.15, 0.989, 23.571, 72.573)" fill="#343f42"/>
        <rect id="사각형_5723" data-name="사각형 5723" width="2.597" height="18.891" transform="matrix(0.989, -0.15, 0.15, 0.989, 29.629, 62.308)" fill="#343f42"/>
        <rect id="사각형_5724" data-name="사각형 5724" width="2.597" height="15.046" transform="matrix(0.989, -0.15, 0.15, 0.989, 26.484, 66.672)" fill="#343f42"/>
        <rect id="사각형_5725" data-name="사각형 5725" width="2.597" height="21.573" transform="matrix(0.989, -0.15, 0.15, 0.989, 18.068, 61.344)" fill="#343f42"/>
        <path id="패스_17524" data-name="패스 17524" d="M408.4,715.7l.253,1.672-45.483,6.878-.79-5.224v-.06l.185,0,.122.807.161-.008.119,1,.285-.054-.02-.224.218-.043.067.627.193-.029.033.588.121-.034.183,1.117.165-.025-.237-1.476.164-.033-.122-.995.3-.061.006.129.178-.032.018.257.131-.015.048.5.234-.035.029.282.277-.028.142,1.4.247-.042-.228-1.32.114-.039-.308-2.085.163-.041-.131-1.146.233-.046.122.618.15-.033.3,2.34.166-.02-.149-1.175.235-.03.173,1.285.23-.018.128,1.221.256-.033-.056-.6.193-.029-.006-.221.165-.025-.121-.708.163-.043-.186-1,.163-.036-.237-1.378.173-.021-.14-1.015.233-.046.147,1.019.158-.03.389,2.666.219-.039-.214-1.187.157-.035-.167-1.146.144-.027-.2-1.114.263-.029-.049-.327.186-.039-.032-.211.2-.063-.064-.249.316-.053.025.25.2-.031.043.284.212.033.186,1.391.141-.037-.092-.7.064-.042-.055-.639.348-.026.267,1.584.138-.021.291,1.969.205-.039-.2-1.131.136-.032-.416-2.517.136-.032-.129-1.038.191-.039.073.388.112-.006.062.552.191-.04-.129-1.178.153-.013.306,2.539.209-.059-.214-1.468.088-.024-.219-1.445.226-.039.227,1.267.131-.02.2,1.47.221-.033.089,1.011.158-.029.174,1.291.158-.024.024.483.379-.051-.028-.233.228-.029.236,1.794.283-.037-.855-5.283.233-.041-.827-4.958.129-.03-.13-1.049.2-.041.086.618.186.021.376,2.576.153-.013.4,3.172.1-.02.159,1.19.165-.03-.119-.878.213-.038-.119-.834.288-.049-.294-1.8.156-.039-.28-2.131.179-.027.092.422.141,0,.054.263h.141l.194,1.471.166-.02.217,1.478.136-.031-.12-.84.091,0-.271-1.686.168-.041-.129-.854.224-.034.17.8.147-.008.446,3.234.13-.025.369,2.955.166-.015.071.47.227-.039-.35-2.273.118-.007-.091-.558.279-.064.188,1.428.157-.034-.1-.914.178-.032.257,2.022.148.006.276,2.107.108-.016-.112-.74.123-.029-.164-.871.19-.023-.026-.174.154-.034.133.816.068-.021.116.808.262-.039-.114-.571.143-.03-.1-.512.2-.05-.329-2.174.141-.037-.479-2.868.18-.049-.177-1.171.161-.023-.2-1.112.185-.028-.126-.837.218-.028.168,1.167.2-.019.1,1.146.13-.025.013.414.131-.015.034.5.177-.037-.065-.336.1-.02-.253-1.716.145-.022-.191-1.447.179-.027.315,2.132.174-.013.374,2.942.185.014.106.885.153-.007-.021-.234.123-.026-.061-.311.139-.021-.044-.291.186-.023.044.36.157,0,.144,1.133.181-.017.271,1.977.169,0,.2,1.395.084,0-.087-.667.072-.086-.173-1.053.155-.05-.268-1.26.208-.021-.163-.8.226-.04.1.444.108.016.092.747.16-.011.036.326.255-.039.1.66.177-.021.08.679.155-.04-.027-.385.225-.023.053.348.212-.021-.075-.577.229-.018.136.627.123-.029-.073-.291.135-.042-.088-.3.35-.107.239,1.113.152-.017-.267-1.535.185-.033-.4-2.449.163-.04-.417-2.478.172-.026-.207-1.508.188-.06.31,2.286.145-.022.312,2.388.131-.02-.015-.19.089-.019-.17-1.081.1-.015-.123-.859.2-.011.126.93.178-.033.17,1.4.126-.008.075.453.19,0,.058.288.234-.035.046.495.177-.04.057.518.157-.034-.043-.236.227-.034.058.466.12-.009.1.633.21-.032-.316-1.625.124-.019-.383-1.974.217-.056-.183-1.058.186-.013-.073-.485.217-.022.131.741.146-.006.207,1.749h.126l.213,1.222.151-.023-.222-1.372.121-.041-.225-1.391.234-.035.115.573.124-.019.325,1.962.159-.018.254,1.635.22-.033-.195-1.148.143-.036-.241-1.409.157-.029-.073-.437.126-.008-.068-.357.174-.058.25,1.56.228-.029-.119-.743.108-.027-.584-3.581.164-.034-1.007-6.192.207-.031-.744-4.357.211-.049-.181-1.176.154-.034-.056-.369.146-.033-.083-.489.241-.031.226,1.774.1-.01.218,1.677.123-.024-.051-.57.24-.042.242,1.7.18-.022.3,2.292.187-.023.193,1.46.159-.017.143,1.178.186-.028.064.655.193-.029.131.961.194-.02.163,1.265.194-.023.147,1.112.09-.013.164,1.131.241-.036-.249-1.832.234-.035.362,2.578.171-.026.4,2.638.095,0,.044.311.3-.046.027.32.175-.007.032.307.138-.016-.033-.314.123-.024-.074-.4.274-.047.034.27.159-.019.122.9.108-.027-.054-.359.135-.037-.036-.34.161-.019.041.274.08,0,.041.4.124-.019.067.531.136-.028-.083-.452.1-.021-.217-1.295.178-.033-.136-.81.136-.031-.272-1.707.178-.038-.671-4.258.155-.013-.4-2.618.176-.027.045.161.132-.011.139,1.154.185-.034.36,2.66.194-.018.4,2.724.138-.01.151,1,.425-.038.093.611.172-.026.144.859.177-.038-.084-.463.124-.019-.082-.448.109-.023-.151-1.046.13-.027-.155-1.214.138-.021-.13-.955-.17-1.217.287-.055.2,1.237.152-.023.325,2.341.179-.027.282,2.049.248-.037.052.435.213-.032-.062-.409.381-.068-.08-.7.317-.042.188,1.283.158-.035.154,1.018.11-.011.033.136.161-.024-.042-.275.176-.014.052.286.165-.025.059.483.22-.033-.057-.286.082-.012-.078-.482.131-.029-.04-.264.52-.089-.13-.757.164-.035-.154-1.061.179-.022-.128-.9.232-.046-.093-.709.191-.04-.434-2.686.19-.046-.918-5.7.144-.022-.429-2.886.206-.036.7,4.464.194-.022.967,6.719.214-.032.462,3.153.152-.023.12.84.394-.046.056.311.444-.055.028.185,1.126-.181-.033-.221.259-.039-.053-.4.247-.046.063.229.421-.058.045.161.442-.056.055.176.3-.04.013.154.291-.055-.124-.823.2-.02-.131-.748.229-.035.031.208Z" transform="translate(-344.098 -663.876)" fill="#3f4d50"/>
        <rect id="사각형_5726" data-name="사각형 5726" width="1.877" height="1.877" transform="translate(35.616 31.215) rotate(-8.599)" fill="#f55f13"/>
        <rect id="사각형_5727" data-name="사각형 5727" width="1.877" height="1.877" transform="translate(35.25 28.795) rotate(-8.599)" fill="#f55f13"/>
        <rect id="사각형_5728" data-name="사각형 5728" width="1.877" height="1.876" transform="translate(34.884 26.375) rotate(-8.599)" fill="#f55f13"/>
        <rect id="사각형_5729" data-name="사각형 5729" width="1.877" height="1.877" transform="translate(34.518 23.955) rotate(-8.599)" fill="#606c7a"/>
        <rect id="사각형_5730" data-name="사각형 5730" width="1.877" height="1.876" transform="translate(34.152 21.535) rotate(-8.599)" fill="#606c7a"/>
        <rect id="사각형_5731" data-name="사각형 5731" width="1.877" height="1.877" transform="translate(33.786 19.115) rotate(-8.599)" fill="#606c7a"/>
        <rect id="사각형_5732" data-name="사각형 5732" width="1.877" height="1.877" transform="translate(33.42 16.695) rotate(-8.599)" fill="#606c7a"/>
        <rect id="사각형_5733" data-name="사각형 5733" width="1.877" height="1.877" transform="translate(37.928 30.865) rotate(-8.599)" fill="#f55f13"/>
        <rect id="사각형_5734" data-name="사각형 5734" width="1.877" height="1.877" transform="translate(37.562 28.445) rotate(-8.599)" fill="#f55f13"/>
        <rect id="사각형_5735" data-name="사각형 5735" width="1.877" height="1.876" transform="translate(37.196 26.025) rotate(-8.599)" fill="#f55f13"/>
        <rect id="사각형_5736" data-name="사각형 5736" width="1.877" height="1.877" transform="translate(36.83 23.605) rotate(-8.599)" fill="#606c7a"/>
        <rect id="사각형_5737" data-name="사각형 5737" width="1.877" height="1.876" transform="translate(36.464 21.185) rotate(-8.599)" fill="#606c7a"/>
        <rect id="사각형_5738" data-name="사각형 5738" width="1.877" height="1.877" transform="translate(40.241 30.516) rotate(-8.599)" fill="#f55f13"/>
        <rect id="사각형_5739" data-name="사각형 5739" width="1.877" height="1.877" transform="translate(39.875 28.096) rotate(-8.599)" fill="#f55f13"/>
        <rect id="사각형_5740" data-name="사각형 5740" width="1.877" height="1.876" transform="translate(39.509 25.675) rotate(-8.599)" fill="#f55f13"/>
        <rect id="사각형_5741" data-name="사각형 5741" width="1.877" height="1.877" transform="translate(42.553 30.166) rotate(-8.599)" fill="#f55f13"/>
        <rect id="사각형_5742" data-name="사각형 5742" width="1.877" height="1.877" transform="translate(42.187 27.746) rotate(-8.599)" fill="#f55f13"/>
        <rect id="사각형_5743" data-name="사각형 5743" width="1.877" height="1.876" transform="translate(41.821 25.326) rotate(-8.599)" fill="#f55f13"/>
        <rect id="사각형_5744" data-name="사각형 5744" width="1.877" height="1.877" transform="translate(41.455 22.906) rotate(-8.599)" fill="#606c7a"/>
        <rect id="사각형_5745" data-name="사각형 5745" width="1.877" height="1.876" transform="translate(41.089 20.486) rotate(-8.599)" fill="#606c7a"/>
        <rect id="사각형_5746" data-name="사각형 5746" width="1.877" height="1.877" transform="translate(40.723 18.065) rotate(-8.599)" fill="#606c7a"/>
        <rect id="사각형_5747" data-name="사각형 5747" width="1.876" height="1.877" transform="matrix(0.989, -0.15, 0.15, 0.989, 44.866, 29.816)" fill="#f55f13"/>
        <rect id="사각형_5748" data-name="사각형 5748" width="1.876" height="1.877" transform="matrix(0.989, -0.15, 0.15, 0.989, 44.5, 27.396)" fill="#f55f13"/>
        <rect id="사각형_5749" data-name="사각형 5749" width="1.877" height="1.876" transform="translate(44.134 24.976) rotate(-8.599)" fill="#f55f13"/>
        <rect id="사각형_5750" data-name="사각형 5750" width="1.877" height="1.877" transform="translate(43.768 22.556) rotate(-8.599)" fill="#606c7a"/>
        <rect id="사각형_5751" data-name="사각형 5751" width="1.877" height="1.877" transform="translate(47.178 29.467) rotate(-8.599)" fill="#f55f13"/>
        <rect id="사각형_5752" data-name="사각형 5752" width="1.877" height="1.877" transform="translate(46.812 27.046) rotate(-8.599)" fill="#f55f13"/>
        <rect id="사각형_5753" data-name="사각형 5753" width="1.877" height="1.876" transform="translate(49.491 29.117) rotate(-8.599)" fill="#f55f13"/>
        <rect id="사각형_5754" data-name="사각형 5754" width="1.877" height="1.877" transform="translate(49.125 26.697) rotate(-8.599)" fill="#f55f13"/>
        <rect id="사각형_5755" data-name="사각형 5755" width="1.877" height="1.876" transform="translate(48.759 24.277) rotate(-8.599)" fill="#f55f13"/>
        <rect id="사각형_5756" data-name="사각형 5756" width="1.877" height="1.877" transform="translate(48.393 21.857) rotate(-8.599)" fill="#606c7a"/>
        <rect id="사각형_5757" data-name="사각형 5757" width="1.877" height="1.876" transform="translate(51.804 28.767) rotate(-8.599)" fill="#f55f13"/>
        <rect id="사각형_5758" data-name="사각형 5758" width="1.877" height="1.877" transform="translate(51.438 26.347) rotate(-8.599)" fill="#f55f13"/>
        <rect id="사각형_5759" data-name="사각형 5759" width="1.877" height="1.876" transform="translate(51.072 23.927) rotate(-8.599)" fill="#f55f13"/>
        <rect id="사각형_5760" data-name="사각형 5760" width="1.877" height="1.877" transform="translate(50.706 21.507) rotate(-8.599)" fill="#606c7a"/>
        <rect id="사각형_5761" data-name="사각형 5761" width="1.877" height="1.876" transform="translate(50.34 19.087) rotate(-8.599)" fill="#606c7a"/>
        <rect id="사각형_5762" data-name="사각형 5762" width="1.877" height="1.876" transform="translate(54.116 28.417) rotate(-8.599)" fill="#f55f13"/>
        <rect id="사각형_5763" data-name="사각형 5763" width="1.876" height="1.877" transform="translate(56.429 28.068) rotate(-8.599)" fill="#f55f13"/>
        <rect id="사각형_5764" data-name="사각형 5764" width="1.877" height="1.877" transform="translate(56.063 25.648) rotate(-8.599)" fill="#f55f13"/>
        <rect id="사각형_5765" data-name="사각형 5765" width="1.877" height="1.876" transform="translate(55.697 23.227) rotate(-8.599)" fill="#f55f13"/>
        <rect id="사각형_5766" data-name="사각형 5766" width="1.877" height="1.877" transform="translate(55.331 20.807) rotate(-8.599)" fill="#606c7a"/>
        <rect id="사각형_5767" data-name="사각형 5767" width="1.877" height="1.876" transform="translate(54.965 18.387) rotate(-8.599)" fill="#606c7a"/>
        <rect id="사각형_5768" data-name="사각형 5768" width="1.877" height="1.877" transform="translate(54.599 15.967) rotate(-8.599)" fill="#606c7a"/>
        <path id="패스_17525" data-name="패스 17525" d="M176.973,1010.284a18.667,18.667,0,0,0,.088-6.952l-1.138-5.9a3.431,3.431,0,0,1,1.406-3.166,1.417,1.417,0,0,1,.251-.136,4.316,4.316,0,0,1,3.955.234,1.434,1.434,0,0,1,.449.471,9.6,9.6,0,0,1,.971,3.242l3.239,16.014a30.816,30.816,0,0,1,.269,6.957c-.006.044-.009.089-.011.133a25.222,25.222,0,0,1-.429,4.119,1.449,1.449,0,0,0-.031.6l.387,2.433a.075.075,0,0,1-.063.086l-12.951,2.1-.231-1.428a1.447,1.447,0,0,0-.5-.877l-4.081-3.42,4.692-9.09c.108-.209.235-.477.346-.684.1-.185,2.094.8,3.381-4.732" transform="translate(-160.049 -943.615)" fill="#edbe85"/>
        <path id="패스_17526" data-name="패스 17526" d="M345.895,1019.883l-3.287.467a.506.506,0,0,1-.574-.44l-.219-1.8a1.985,1.985,0,0,1,1.68-1.922,2.363,2.363,0,0,1,2.363.883,3.946,3.946,0,0,1,.381,1.664l.085.576a.506.506,0,0,1-.429.575" transform="translate(-324.569 -964.871)" fill="#f5e0cd"/>
        <rect id="사각형_5769" data-name="사각형 5769" width="16.067" height="1.768" transform="matrix(0.988, -0.156, 0.156, 0.988, 11.412, 86.933)" fill="#fff"/>
        <path id="패스_17527" data-name="패스 17527" d="M209.637,1691.771l2.1,14.148-20.636,3.121L189,1694.853l0-.015Z" transform="translate(-179.458 -1606.414)" fill="#343f42"/>
        <path id="패스_17528" data-name="패스 17528" d="M199.059,1722.466l2.1,14.16-10.335,1.563L188.721,1724l.016,0Z" transform="translate(-179.199 -1635.559)" fill="#3f4c51"/>
        <path id="패스_17529" data-name="패스 17529" d="M239.338,1793.778a.686.686,0,1,1-.2.95.686.686,0,0,1,.2-.95" transform="translate(-226.969 -1703.166)" fill="#fff"/>
        <path id="패스_17530" data-name="패스 17530" d="M246.8,1837.251a.686.686,0,1,1-.2.95.686.686,0,0,1,.2-.95" transform="translate(-234.057 -1744.446)" fill="#fff"/>
        <path id="패스_17531" data-name="패스 17531" d="M253.338,1881.336a.686.686,0,1,1-.2.95.686.686,0,0,1,.2-.95" transform="translate(-240.263 -1786.307)" fill="#fff"/>
        <path id="패스_17532" data-name="패스 17532" d="M901.38,730.89s-5.778.61-5.851.867,5.01,3.727,5.01,3.727l.959-2.03Z" transform="translate(-850.345 -694.013)" fill="#bf945c"/>
        <path id="패스_17533" data-name="패스 17533" d="M993.015,730.765l26.892,5.014-.844,4.473-26.874-4.89s-.38-.62.2-.882c0,0-.5-.5.2-.9,0,0-.476-.482.161-1.027a.519.519,0,0,1,.11-.85s-.4-.328.154-.941" transform="translate(-942.013 -693.894)" fill="#f55f13"/>
        <path id="패스_17534" data-name="패스 17534" d="M1053.865,784.4a16.286,16.286,0,0,1-4.758-3.761l-3.369-4.013a2.993,2.993,0,0,0-2.918-.788,1.237,1.237,0,0,0-.23.095,3.765,3.765,0,0,0-2.016,2.808,1.25,1.25,0,0,0,.072.563,8.374,8.374,0,0,0,1.663,2.44l9.068,11a26.884,26.884,0,0,0,4.565,4.006q.049.031.1.066a22,22,0,0,0,3.026,1.973,1.265,1.265,0,0,1,.423.308l1.436,1.6a.066.066,0,0,0,.093.005l8.538-7.622-.84-.941a1.262,1.262,0,0,1-.32-.82l-.074-4.645-8.737-1.818c-.2-.042-.452-.1-.653-.142-.18-.035-.612,1.857-5.064-.31" transform="translate(-988.066 -736.583)" fill="#edbe85"/>
        <path id="패스_17535" data-name="패스 17535" d="M1062.756,802.827l2.123-1.97a.441.441,0,0,0,.017-.63l-1.1-1.139a1.732,1.732,0,0,0-2.225.082,2.062,2.062,0,0,0-.7,2.086,3.444,3.444,0,0,0,.918,1.173l.344.374a.441.441,0,0,0,.625.025" transform="translate(-1007.274 -758.432)" fill="#f5e0cd"/>
        <path id="패스_17536" data-name="패스 17536" d="M1515.767,827.651l-3.767-.685-.817,4.488,3.767.685a2.291,2.291,0,1,0,.817-4.488" transform="translate(-1434.938 -785.242)" fill="#3f4c51"/>
        <path id="패스_17537" data-name="패스 17537" d="M897.918,740.562a12.8,12.8,0,0,0-2.22.363,11.408,11.408,0,0,0,1.756,1.4Z" transform="translate(-850.506 -703.197)" fill="#343f42"/>
        <rect id="사각형_5770" data-name="사각형 5770" width="16.067" height="1.768" transform="translate(70.491 65.635) rotate(-41.112)" fill="#fff"/>
        <path id="패스_17538" data-name="패스 17538" d="M1443.946,1131.657l-24.334,3.68-38.246-45.241-.01-.011L1397.2,1076.5Z" transform="translate(-1311.661 -1022.187)" fill="#343f42"/>
        <path id="패스_17539" data-name="패스 17539" d="M1431.376,1261.195l-12.185,1.843-37.881-44.909.013-.01,7.923-6.791Z" transform="translate(-1311.616 -1150.21)" fill="#3f4c51"/>
        <path id="패스_17540" data-name="패스 17540" d="M1679.992,1136.391a.686.686,0,1,1,.34.908.686.686,0,0,1-.34-.908" transform="translate(-1595.17 -1078.673)" fill="#fff"/>
        <path id="패스_17541" data-name="패스 17541" d="M1709.448,1169.224a.686.686,0,1,1,.34.908.686.686,0,0,1-.34-.908" transform="translate(-1623.14 -1109.85)" fill="#fff"/>
        <path id="패스_17542" data-name="패스 17542" d="M1738.441,1203.07a.686.686,0,1,1,.339.908.686.686,0,0,1-.339-.908" transform="translate(-1650.67 -1141.989)" fill="#fff"/>
      </g>
    </g>
  </g>
</svg>
