<svg xmlns="http://www.w3.org/2000/svg" width="139.134" height="128.797" viewBox="0 0 139.134 128.797">
  <g id="그룹_796" data-name="그룹 796" transform="translate(-57.107 -71.588)">
    <g id="background-simple--inject-569" transform="translate(57.107 71.588)">
      <path id="패스_1676" data-name="패스 1676" d="M115.664,109.886c11.839-8.6,15.042-25.1,27.945-32.561,11.346-6.558,31.612-8.292,43.1-.957,12.811,8.177,14.1,24.616,6.562,37.041-8.3,13.67-24.526,15.322-37.714,21.824-23.106,11.409-70.72,50.637-92.589,14.3-6.786-11.278-6.465-35.446,9.455-38.865C87.73,107.408,98.986,121.983,115.664,109.886Z" transform="translate(-58.779 -71.588)" fill="#ffefdd"/>
    </g>
    <g id="Survey--inject-569" transform="translate(75.52 78.312)">
      <path id="패스_1678" data-name="패스 1678" d="M177.11,101.45H108.05l5.366,94.05h69.057Z" transform="translate(-108.05 -97.014)" fill="#263238"/>
      <path id="패스_1679" data-name="패스 1679" d="M180.7,101.45H111.64l5.366,94.05h69.06Z" transform="translate(-110.298 -97.014)" fill="#ff9f9f"/>
      <path id="패스_1680" data-name="패스 1680" d="M181.235,109.91H120.09l4.384,85.133h62.733Z" transform="translate(-115.591 -102.313)" opacity="0.5" style="isolation: isolate"/>
      <path id="패스_1681" data-name="패스 1681" d="M120.09,109.91c4.544,28.379,1.428,56.758,5.979,85.133H188.8c-4.544-28.375-1.428-56.754-5.979-85.133Z" transform="translate(-115.591 -102.313)" fill="#fff"/>
      <g id="그룹_792" data-name="그룹 792" transform="translate(11.327 32.049)" opacity="0.172">
        <path id="패스_1682" data-name="패스 1682" d="M144.358,176.4a5.407,5.407,0,0,1,5.359,5.168,4.91,4.91,0,0,1-4.7,5.112c-.085,0-.17,0-.255,0a5.359,5.359,0,0,1-5.31-5.146,4.944,4.944,0,0,1,1.357-3.621,4.877,4.877,0,0,1,3.55-1.495m-.037-1.08a5.923,5.923,0,0,0-5.96,5.886c0,.11,0,.219.007.329a6.469,6.469,0,0,0,6.409,6.215,5.979,5.979,0,0,0,6.029-5.93c0-.095,0-.19,0-.285A6.529,6.529,0,0,0,144.321,175.34Z" transform="translate(-138.361 -175.34)" fill="#fa8700"/>
      </g>
      <path id="패스_1683" data-name="패스 1683" d="M212.249,302.92H192.443a1.043,1.043,0,0,0-1.06,1.025,1.067,1.067,0,0,0,.006.134h0a1.312,1.312,0,0,0,1.274,1.162H212.47a1.035,1.035,0,0,0,1.054-1.016,1.064,1.064,0,0,0-.008-.146h0A1.3,1.3,0,0,0,212.249,302.92Z" transform="translate(-160.241 -223.194)" fill="#e0e0e0"/>
      <path id="패스_1684" data-name="패스 1684" d="M222.145,289.87h-30.8a1.057,1.057,0,0,0-1.077,1.038,1.079,1.079,0,0,0,0,.121h0a1.271,1.271,0,0,0,1.248,1.162h30.786a1.057,1.057,0,0,0,1.084-1.151h0A1.267,1.267,0,0,0,222.145,289.87Z" transform="translate(-159.543 -215.021)" fill="#e0e0e0"/>
      <g id="그룹_793" data-name="그룹 793" transform="translate(11.906 52.139)" opacity="0.172">
        <path id="패스_1685" data-name="패스 1685" d="M145.961,230.184a5.329,5.329,0,0,1,5.288,5.146,4.956,4.956,0,0,1-1.379,3.621,4.9,4.9,0,0,1-3.565,1.495,5.362,5.362,0,0,1-5.322-5.146,4.948,4.948,0,0,1,4.777-5.113c.067,0,.134,0,.2,0m0-1.084h0a6.013,6.013,0,0,0-6.05,5.976q0,.119,0,.239a6.477,6.477,0,0,0,6.435,6.218,5.979,5.979,0,0,0,6-5.956c0-.087,0-.175,0-.263a6.431,6.431,0,0,0-6.387-6.215Z" transform="translate(-139.911 -229.1)" fill="#fa8700"/>
      </g>
      <path id="패스_1686" data-name="패스 1686" d="M198.027,184.6H187.432a1.214,1.214,0,0,1-1.2-1.162h0a1.121,1.121,0,0,1,1.083-1.158h10.629a1.222,1.222,0,0,1,1.211,1.158h0a1.121,1.121,0,0,1-1.079,1.161Z" transform="translate(-157.013 -147.638)" fill="#e0e0e0"/>
      <path id="패스_1687" data-name="패스 1687" d="M236.471,184.6H229.3a1.218,1.218,0,0,1-1.207-1.162h0a1.121,1.121,0,0,1,1.083-1.158h7.217a1.218,1.218,0,0,1,1.207,1.158h0a1.121,1.121,0,0,1-1.079,1.161Z" transform="translate(-183.23 -147.638)" fill="#e0e0e0"/>
      <path id="패스_1688" data-name="패스 1688" d="M216.327,197.651H187.889a1.207,1.207,0,0,1-1.2-1.162h0a1.121,1.121,0,0,1,1.083-1.158h28.473a1.2,1.2,0,0,1,1.2,1.158h0a1.121,1.121,0,0,1-1.079,1.161Z" transform="translate(-157.301 -155.811)" fill="#e0e0e0"/>
      <g id="그룹_794" data-name="그룹 794" transform="translate(12.923 72.232)" opacity="0.172">
        <path id="패스_1689" data-name="패스 1689" d="M148.476,283.948a5.666,5.666,0,0,1,5.531,5.15,4.727,4.727,0,0,1-1.162,3.617,4.562,4.562,0,0,1-3.46,1.495,5.77,5.77,0,0,1-5.643-5.146,4.663,4.663,0,0,1,1.218-3.621,4.731,4.731,0,0,1,3.517-1.495m-.052-1.08a5.681,5.681,0,0,0-5.791,5.568,5.753,5.753,0,0,0,.024.647,6.983,6.983,0,0,0,6.831,6.215,5.566,5.566,0,0,0,5.606-6.215,6.816,6.816,0,0,0-6.667-6.215Z" transform="translate(-142.632 -282.867)" fill="#fa8700"/>
      </g>
      <path id="패스_1690" data-name="패스 1690" d="M222.125,249.13H189.31a1.121,1.121,0,0,0-1.122,1.12c0,.013,0,.025,0,.038h0a1.211,1.211,0,0,0,1.2,1.158h32.83a1.121,1.121,0,0,0,1.122-1.12c0-.013,0-.025,0-.038h0A1.2,1.2,0,0,0,222.125,249.13Z" transform="translate(-158.24 -189.506)" fill="#e0e0e0"/>
      <path id="패스_1691" data-name="패스 1691" d="M214.11,236.07H188.93a1.121,1.121,0,0,0-1.122,1.12c0,.014,0,.028,0,.042h0A1.2,1.2,0,0,0,189,238.391h25.184a1.121,1.121,0,0,0,1.122-1.12c0-.013,0-.025,0-.038h0A1.2,1.2,0,0,0,214.11,236.07Z" transform="translate(-158.002 -181.326)" fill="#e0e0e0"/>
      <path id="패스_1692" data-name="패스 1692" d="M149.016,187.259l-.441-.725a12.354,12.354,0,0,0-3.685-3.4l.523-.927a14.287,14.287,0,0,1,3.617,3.124,34.86,34.86,0,0,1,7.052-6.7l.676.874a32.353,32.353,0,0,0-7.276,7.074C149.33,186.807,149.173,187.035,149.016,187.259Z" transform="translate(-131.123 -145.352)" fill="#ff9f9f"/>
      <path id="패스_1693" data-name="패스 1693" d="M150.522,241.053c-.146-.243-.3-.486-.445-.725a12.554,12.554,0,0,0-3.677-3.408l.531-.927a14.332,14.332,0,0,1,3.6,3.124,34.4,34.4,0,0,1,7.123-6.7l.661.874a31.658,31.658,0,0,0-7.328,7.074Z" transform="translate(-132.068 -179.04)" fill="#ff9f9f"/>
      <path id="패스_1694" data-name="패스 1694" d="M153.532,294.979l-.493-.725a13.69,13.69,0,0,0-3.879-3.4l.486-.927a15.716,15.716,0,0,1,3.771,3.12,30.863,30.863,0,0,1,6.786-6.693l.7.874a28.261,28.261,0,0,0-6.951,7.074Z" transform="translate(-133.797 -212.816)" fill="#ff9f9f"/>
      <path id="패스_1695" data-name="패스 1695" d="M220.712,129q-.987,2.153-2.022,4.3a9.249,9.249,0,0,1,5.1,7.5h4.967A14.63,14.63,0,0,0,220.712,129Z" transform="translate(-177.344 -114.269)" fill="#ff9f9f"/>
      <path id="패스_1696" data-name="패스 1696" d="M173.419,141.264h4.967a7.912,7.912,0,0,1,3.453-7.239q-1.45-2.153-2.945-4.305A12.55,12.55,0,0,0,173.419,141.264Z" transform="translate(-148.971 -114.72)" fill="#263238"/>
      <path id="패스_1697" data-name="패스 1697" d="M194.847,124.539a12.235,12.235,0,0,0-6.727,1.936q1.5,2.153,2.945,4.305a7.848,7.848,0,0,1,4.357-1.278,9.062,9.062,0,0,1,4.111,1.013q1.031-2.153,2.022-4.3A14.65,14.65,0,0,0,194.847,124.539Z" transform="translate(-158.198 -111.474)" fill="#9cb1ef"/>
      <path id="패스_1698" data-name="패스 1698" d="M194.847,124.539a12.235,12.235,0,0,0-6.727,1.936q1.5,2.153,2.945,4.305a7.848,7.848,0,0,1,4.357-1.278,9.062,9.062,0,0,1,4.111,1.013q1.031-2.153,2.022-4.3A14.65,14.65,0,0,0,194.847,124.539Z" transform="translate(-158.198 -111.474)" fill="#263238" opacity="0.5" style="isolation: isolate"/>
      <path id="패스_1699" data-name="패스 1699" d="M212.274,151.51s-5.015,2.052-5.546,2.425a1.192,1.192,0,0,0-.231,1.67l.018.023a1.252,1.252,0,0,0,1.712.325C208.776,155.557,212.281,151.51,212.274,151.51ZM207,155.247a.587.587,0,0,1,.093-.824l.012-.009a.624.624,0,0,1,.845.161.587.587,0,0,1-.093.824l-.012.009a.624.624,0,0,1-.845-.146Z" transform="translate(-169.556 -128.367)" fill="#263238"/>
      <path id="패스_1700" data-name="패스 1700" d="M232.34,142.21a1.592,1.592,0,0,1-1.41,1.755,1.55,1.55,0,0,1-.2.009,1.962,1.962,0,0,1-1.913-1.764,1.581,1.581,0,0,1,1.391-1.75,1.554,1.554,0,0,1,.209-.01A1.973,1.973,0,0,1,232.34,142.21Z" transform="translate(-183.677 -121.439)" fill="#fff"/>
      <path id="패스_1701" data-name="패스 1701" d="M231.478,143.61a.254.254,0,0,1-.226.279h-.028a.31.31,0,0,1-.306-.28.25.25,0,0,1,.219-.278l.035,0A.31.31,0,0,1,231.478,143.61Z" transform="translate(-185 -123.243)" fill="#263238"/>
      <path id="패스_1702" data-name="패스 1702" d="M235.051,143.61a.254.254,0,0,1-.226.279h-.031a.317.317,0,0,1-.306-.28.251.251,0,0,1,.219-.279h.039A.31.31,0,0,1,235.051,143.61Z" transform="translate(-187.236 -123.243)" fill="#263238"/>
      <path id="패스_1703" data-name="패스 1703" d="M232.031,146.947h0a1.5,1.5,0,0,1-1-.392.139.139,0,0,1,0-.194.134.134,0,0,1,.19,0l0,0a1.215,1.215,0,0,0,.811.321h0a.994.994,0,0,0,.747-.314.139.139,0,0,1,.2.191h0A1.262,1.262,0,0,1,232.031,146.947Z" transform="translate(-185.049 -125.115)" fill="#263238"/>
      <path id="패스_1704" data-name="패스 1704" d="M205.679,128.149a1.551,1.551,0,0,1-1.323,1.749,1.512,1.512,0,0,1-.247.015,2.022,2.022,0,0,1-1.958-1.764,1.532,1.532,0,0,1,1.287-1.744,1.567,1.567,0,0,1,.268-.016A2.04,2.04,0,0,1,205.679,128.149Z" transform="translate(-166.974 -112.633)" fill="#fff"/>
      <path id="패스_1705" data-name="패스 1705" d="M204.8,129.53a.247.247,0,0,1-.211.278l-.036,0a.325.325,0,0,1-.314-.28.243.243,0,0,1,.2-.277.219.219,0,0,1,.044,0A.321.321,0,0,1,204.8,129.53Z" transform="translate(-168.289 -114.425)" fill="#263238"/>
      <path id="패스_1706" data-name="패스 1706" d="M208.36,129.53a.247.247,0,0,1-.211.278.232.232,0,0,1-.04,0,.329.329,0,0,1-.314-.28.247.247,0,0,1,.211-.278.233.233,0,0,1,.04,0A.325.325,0,0,1,208.36,129.53Z" transform="translate(-170.519 -114.425)" fill="#263238"/>
      <path id="패스_1707" data-name="패스 1707" d="M206.279,132.53H204.53a.142.142,0,0,1,0-.28h1.749a.142.142,0,0,1,0,.28Z" transform="translate(-168.401 -116.304)" fill="#263238"/>
      <path id="패스_1708" data-name="패스 1708" d="M181.94,142.21a1.592,1.592,0,0,1-1.41,1.755,1.55,1.55,0,0,1-.2.009,1.962,1.962,0,0,1-1.913-1.764,1.581,1.581,0,0,1,1.391-1.75,1.554,1.554,0,0,1,.209-.01A1.977,1.977,0,0,1,181.94,142.21Z" transform="translate(-152.111 -121.439)" fill="#fff"/>
      <path id="패스_1709" data-name="패스 1709" d="M181.058,143.61a.254.254,0,0,1-.226.279H180.8a.31.31,0,0,1-.306-.28.25.25,0,0,1,.219-.278l.036,0A.31.31,0,0,1,181.058,143.61Z" transform="translate(-153.422 -123.243)" fill="#263238"/>
      <path id="패스_1710" data-name="패스 1710" d="M184.638,143.61a.25.25,0,0,1-.219.278l-.035,0a.317.317,0,0,1-.306-.28.25.25,0,0,1,.219-.278l.035,0A.306.306,0,0,1,184.638,143.61Z" transform="translate(-155.664 -123.243)" fill="#263238"/>
      <path id="패스_1711" data-name="패스 1711" d="M180.777,146.935a.132.132,0,0,1-.093-.037.139.139,0,0,1,0-.194,1.282,1.282,0,0,1,.945-.4,1.5,1.5,0,0,1,1,.4.134.134,0,0,1,0,.19l0,0a.146.146,0,0,1-.2,0,1.2,1.2,0,0,0-.815-.321,1,1,0,0,0-.747.31A.145.145,0,0,1,180.777,146.935Z" transform="translate(-153.515 -125.103)" fill="#263238"/>
      <path id="패스_1712" data-name="패스 1712" d="M191.307,97.42a7.547,7.547,0,0,0-6.82-4.081h-5.979a2.332,2.332,0,0,1-2.074-1.084,5.73,5.73,0,0,0-5.079-2.676,5.032,5.032,0,0,0-4.768,2.676,2.046,2.046,0,0,1-1.951,1.084h-5.979A6.574,6.574,0,0,0,152.3,97.42a.606.606,0,0,0-.037.269.747.747,0,0,0,.747.71h37.7a.669.669,0,0,0,.594-.979Zm-19.709-3.4a1.786,1.786,0,0,1-1.745-1.663,1.555,1.555,0,0,1,1.442-1.659c.042,0,.084,0,.127,0a1.783,1.783,0,0,1,1.76,1.663,1.555,1.555,0,0,1-1.442,1.66Q171.669,94.018,171.6,94.016Z" transform="translate(-135.741 -89.58)" fill="#263238"/>
    </g>
    <g id="Character--inject-569" transform="translate(138.99 87.019)">
      <path id="패스_1713" data-name="패스 1713" d="M358.934,408a1.2,1.2,0,0,1-.83-.206.258.258,0,0,1-.026-.284.276.276,0,0,1,.191-.153c.441-.123,1.461.422,1.495.448a.063.063,0,0,1,.037.067.056.056,0,0,1-.045.052A4.849,4.849,0,0,1,358.934,408Zm-.493-.531a.426.426,0,0,0-.123,0,.168.168,0,0,0-.12.09.18.18,0,0,0,0,.146c.149.176.845.179,1.345.108a3.232,3.232,0,0,0-1.1-.344Z" transform="translate(-328.092 -297.3)" fill="#9cb1ef"/>
      <path id="패스_1714" data-name="패스 1714" d="M360.8,406.834h-.026c-.348-.149-1.073-.747-1.058-1.054,0-.075.045-.164.224-.183a.531.531,0,0,1,.374.112,2.11,2.11,0,0,1,.546,1.058.067.067,0,0,1,0,.06A.063.063,0,0,1,360.8,406.834Zm-.8-1.121h-.037c-.116,0-.12.056-.12.071,0,.187.49.654.852.856a1.742,1.742,0,0,0-.46-.845.373.373,0,0,0-.235-.075Z" transform="translate(-329.14 -296.206)" fill="#9cb1ef"/>
      <path id="패스_1715" data-name="패스 1715" d="M364.43,398.08h-2.747l-.983-6.36h2.747Z" transform="translate(-329.754 -287.517)" fill="#ffc3bd"/>
      <path id="패스_1716" data-name="패스 1716" d="M355.072,407.89h2.99a.276.276,0,0,1,.254.187l.815,2.44a.374.374,0,0,1-.244.469.38.38,0,0,1-.1.017c-1.084,0-2.653-.078-4.014-.078-1.588,0-1.446.086-3.311.086-1.121,0-1.566-1.14-1.121-1.244a8.538,8.538,0,0,0,4.066-1.663A1.155,1.155,0,0,1,355.072,407.89Z" transform="translate(-323.162 -297.644)" fill="#263238"/>
      <path id="패스_1717" data-name="패스 1717" d="M360.7,391.73l.508,3.277h2.747l-.508-3.277Z" transform="translate(-329.754 -287.523)" opacity="0.2" style="isolation: isolate"/>
      <path id="패스_1718" data-name="패스 1718" d="M366.708,225.45l-1.868,1.887,2.863,1.013s1.121-1.54.333-2.593Z" transform="translate(-332.347 -183.382)" fill="#ffc3bd"/>
      <path id="패스_1719" data-name="패스 1719" d="M363.16,233.138l2.859.419.639-2.044L363.8,230.5Z" transform="translate(-331.294 -186.545)" fill="#ffc3bd"/>
      <path id="패스_1720" data-name="패스 1720" d="M365.314,163.27c.243.523.437.968.632,1.454s.374.953.561,1.431c.355.96.673,1.94.968,2.93a30.869,30.869,0,0,1,.747,3.046l.142.785.116.8c.041.265.067.542.09.815s.06.519.06.863v.916l-.022.422-.041.4c-.049.538-.12,1.043-.187,1.555-.149,1.009-.321,2-.512,2.99-.4,1.954-.83,3.864-1.353,5.789l-3.4-.673c.217-1.9.441-3.827.62-5.725.086-.949.179-1.895.232-2.821.022-.456.049-.919.049-1.357v-.934l-.026-.247a5.649,5.649,0,0,0-.082-.587c-.034-.209-.064-.419-.112-.632l-.138-.639-.161-.643c-.232-.86-.493-1.723-.792-2.586s-.632-1.723-.983-2.575c-.172-.43-.351-.856-.538-1.274s-.374-.856-.557-1.218Z" transform="translate(-329.704 -144.439)" fill="#263238"/>
      <path id="패스_1721" data-name="패스 1721" d="M338.65,221.87s.456,21.017,1.689,29.388c1.286,8.707,5.979,36.731,5.979,36.731h4.649s-1.667-26.671-2.2-35.24c-.579-9.343-.452-30.879-.452-30.879Z" transform="translate(-315.944 -181.14)" fill="#ffc37c"/>
      <path id="패스_1722" data-name="패스 1722" d="M356.179,393.84c-.022,0,.478,1.932.478,1.932h5.658l-.041-1.723Z" transform="translate(-326.922 -288.844)" fill="#263238"/>
      <ellipse id="타원_191" data-name="타원 191" cx="0.422" cy="0.277" rx="0.422" ry="0.277" transform="translate(21.081 7.047) rotate(-86.48)" fill="#263238"/>
      <path id="패스_1723" data-name="패스 1723" d="M333.561,131.78a8.675,8.675,0,0,1-1.181,1.988,1.315,1.315,0,0,0,1.1.209Z" transform="translate(-312.017 -124.717)" fill="#ed847e"/>
      <path id="패스_1724" data-name="패스 1724" d="M336.126,126.327a.164.164,0,0,1-.082-.022,1.054,1.054,0,0,0-.96-.179.135.135,0,0,1-.175-.075v0a.138.138,0,0,1,.086-.176h0a1.327,1.327,0,0,1,1.218.209.138.138,0,0,1,.026.191A.142.142,0,0,1,336.126,126.327Z" transform="translate(-313.595 -120.975)" fill="#263238"/>
      <path id="패스_1725" data-name="패스 1725" d="M344.461,137.52c-.463,2.011-.987,5.691.374,7.029,0,0-.62,2.037-4.354,2.037-4.111,0-1.887-2.037-1.887-2.037,2.242-.534,2.261-2.194,1.925-3.756Z" transform="translate(-315.533 -128.312)" fill="#ffc3bd"/>
      <path id="패스_1726" data-name="패스 1726" d="M344.659,154.763c.4-.818.848-1.76,0-2.052-.927-.325-6.05-.654-7.848-.049a1.868,1.868,0,0,0-1.349,2.272Z" transform="translate(-313.911 -137.584)" fill="#ff9f9f"/>
      <path id="패스_1727" data-name="패스 1727" d="M364.919,157.888c2.366,1.091,3.569,9.365,3.569,9.365l-4.765,1.495a48.378,48.378,0,0,1-2.067-6.727C360.924,158.568,362.5,156.775,364.919,157.888Z" transform="translate(-330.24 -140.862)" fill="#263238"/>
      <path id="패스_1728" data-name="패스 1728" d="M285.334,189.721l-2.2-1.891-1.977,2.878a4.532,4.532,0,0,0,3.737.841Z" transform="translate(-279.938 -159.821)" fill="#ffc3bd"/>
      <path id="패스_1729" data-name="패스 1729" d="M278.193,185.38l-.3,2.844,1.222.949,1.977-2.878Z" transform="translate(-277.89 -158.287)" fill="#ffc3bd"/>
      <path id="패스_1730" data-name="패스 1730" d="M342.789,122.292c-.277,2.855-.3,4.537-1.79,6a3.737,3.737,0,0,1-6.3-1.954c-.523-2.564,0-6.8,2.851-7.937a3.77,3.77,0,0,1,5.239,3.89Z" transform="translate(-313.357 -116.145)" fill="#ffc3bd"/>
      <path id="패스_1731" data-name="패스 1731" d="M337.788,119.943c-.25-1.973-.209-2.721.845-3.158-1.095-.217-2.044-.247-2.5-.886s-.561-2.272,1.637-3.02c-.2.374.437,1.151,2.459.448s4.967-.777,5.232,1.278c1.069-.374,2.859,2.926.747,5.336-1.76,2.018-2.934,3.412-3.281,4.484a.374.374,0,0,1-.471.24.33.33,0,0,1-.041-.016,4.635,4.635,0,0,0-2.616.108.374.374,0,0,1-.426-.191A17.45,17.45,0,0,1,337.788,119.943Z" transform="translate(-314.203 -112.88)" fill="#263238"/>
      <path id="패스_1732" data-name="패스 1732" d="M360.48,117.081a1.857,1.857,0,0,1,2.53-.314A7.527,7.527,0,0,0,360.48,117.081Z" transform="translate(-329.616 -115.104)" fill="#263238"/>
      <path id="패스_1733" data-name="패스 1733" d="M360.86,115.256a1.433,1.433,0,0,0,.265-2.156A5.432,5.432,0,0,1,360.86,115.256Z" transform="translate(-329.854 -113.018)" fill="#263238"/>
      <path id="패스_1734" data-name="패스 1734" d="M340.868,129.924a3.419,3.419,0,0,1-1,1.85c-.691.654-1.289.191-1.308-.65-.019-.747.318-2.011,1.121-2.347S341.01,129.08,340.868,129.924Z" transform="translate(-315.886 -122.779)" fill="#ffc3bd"/>
      <path id="패스_1735" data-name="패스 1735" d="M339.68,253.12c.269,6.271.691,13.55,1.3,17.71.235,1.585.579,3.8.99,6.379C343.626,268.2,344.613,256.58,339.68,253.12Z" transform="translate(-316.589 -200.712)" opacity="0.119" style="isolation: isolate"/>
      <path id="패스_1736" data-name="패스 1736" d="M332.757,408c-.351,0-.691-.049-.8-.206a.254.254,0,0,1,0-.284.374.374,0,0,1,.213-.153c.46-.123,1.4.422,1.443.448a.056.056,0,0,1,.026.067.068.068,0,0,1-.052.052A5.018,5.018,0,0,1,332.757,408Zm-.415-.531a.452.452,0,0,0-.127,0,.2.2,0,0,0-.131.09c-.049.082-.034.123-.019.146.123.176.815.179,1.33.108a2.845,2.845,0,0,0-1.054-.344Z" transform="translate(-311.725 -297.3)" fill="#9cb1ef"/>
      <path id="패스_1737" data-name="패스 1737" d="M334.839,406.831h-.026c-.325-.149-.964-.747-.9-1.054,0-.075.067-.164.247-.183a.483.483,0,0,1,.374.112,1.734,1.734,0,0,1,.374,1.058.078.078,0,0,1-.03.06A.068.068,0,0,1,334.839,406.831Zm-.632-1.121h-.037c-.12,0-.127.056-.131.071-.037.187.392.654.725.856a1.494,1.494,0,0,0-.333-.845.346.346,0,0,0-.224-.075Z" transform="translate(-312.974 -296.203)" fill="#9cb1ef"/>
      <path id="패스_1738" data-name="패스 1738" d="M339.8,398.08h-2.743L337,391.72h2.747Z" transform="translate(-314.91 -287.517)" fill="#ffc3bd"/>
      <path id="패스_1739" data-name="패스 1739" d="M325.953,407.89h2.99a.224.224,0,0,1,.224.187l.46,2.44a.414.414,0,0,1-.415.486c-1.08,0-2.642-.078-4-.078-1.592,0-2.967.086-4.832.086-1.121,0-1.4-1.14-.923-1.244,2.164-.467,3.92-.519,5.815-1.663A1.332,1.332,0,0,1,325.953,407.89Z" transform="translate(-303.785 -297.644)" fill="#263238"/>
      <path id="패스_1740" data-name="패스 1740" d="M337.01,391.73l.022,3.277h2.747l-.022-3.277Z" transform="translate(-314.917 -287.523)" opacity="0.2" style="isolation: isolate"/>
      <path id="패스_1741" data-name="패스 1741" d="M323.7,221.87s-1.121,20.527-1.1,28.9c0,8.707,4.41,37.221,4.41,37.221h4.649s-1.211-28.005-.688-36.548c.557-9.343,3.255-29.564,3.255-29.564Z" transform="translate(-305.891 -181.14)" fill="#ffc37c"/>
      <path id="패스_1742" data-name="패스 1742" d="M332.177,393.84c-.022,0,.191,1.932.191,1.932h5.658l.217-1.723Z" transform="translate(-311.889 -288.844)" fill="#263238"/>
      <path id="패스_1743" data-name="패스 1743" d="M322.931,156.942s-4.679,11.82-2.642,32.251h17.086c.179-2.242-1.607-21.772.942-32.393a37.848,37.848,0,0,0-4.9-.62,54.328,54.328,0,0,0-6.241,0A27.962,27.962,0,0,0,322.931,156.942Z" transform="translate(-304.123 -139.942)" fill="#263238"/>
      <path id="패스_1744" data-name="패스 1744" d="M320.748,179.8c-.254,1.869-.463,4-.6,6.353,3.318-3.049,4.455-10.647,4.455-10.647Z" transform="translate(-304.357 -152.105)" opacity="0.2" style="isolation: isolate"/>
      <path id="패스_1745" data-name="패스 1745" d="M304.7,170.486c-.673,1.749-1.353,3.434-2.1,5.127s-1.521,3.363-2.392,5.038l-.34.624-.172.314c-.071.127-.064.135-.258.46a3.654,3.654,0,0,1-1.349,1.256,4.023,4.023,0,0,1-1.461.441,6.15,6.15,0,0,1-2.093-.168,11.6,11.6,0,0,1-1.585-.516,20.61,20.61,0,0,1-2.679-1.345c-.422-.243-.826-.5-1.226-.747s-.762-.553-1.192-.852l2.018-3.094a26.259,26.259,0,0,0,4.54,1.969,6.867,6.867,0,0,0,1.02.232,1.44,1.44,0,0,0,.6,0c.022,0-.049-.022-.172.041a1,1,0,0,0-.374.329c-.078.131.022-.064.056-.138l.135-.3.269-.587c.71-1.585,1.368-3.225,2.007-4.858s1.259-3.337,1.831-4.985Z" transform="translate(-284.128 -147.859)" fill="#263238"/>
      <path id="패스_1746" data-name="패스 1746" d="M322.844,159.316c.874,2.444-5.314,12.284-5.314,12.284l-3.67-3.636s.938-3.091,2.175-6.813C317.253,157.492,322.01,156.98,322.844,159.316Z" transform="translate(-300.418 -141.075)" fill="#263238"/>
    </g>
  </g>
</svg>
