<svg id="그룹_5852" data-name="그룹 5852" xmlns="http://www.w3.org/2000/svg" xmlns:xlink="http://www.w3.org/1999/xlink" width="106.571" height="118" viewBox="0 0 106.571 118">
  <defs>
    <clipPath id="clip-path">
      <rect id="사각형_7319" data-name="사각형 7319" width="106.571" height="118" fill="none"/>
    </clipPath>
  </defs>
  <g id="그룹_5849" data-name="그룹 5849">
    <g id="그룹_5848" data-name="그룹 5848" clip-path="url(#clip-path)">
      <path id="패스_17920" data-name="패스 17920" d="M156.849,737.761v2.678a.911.911,0,0,0,.211.576,1.223,1.223,0,0,0,.577.386,1.308,1.308,0,0,0,.225.053,1.39,1.39,0,0,0,.217.017h50.8a1.161,1.161,0,0,0,1.228-.979c0-.018,0-.035,0-.053v-2.678c0-.018,0-.035,0-.053a1.161,1.161,0,0,0-1.228-.979h-50.8a1.4,1.4,0,0,0-.217.017,1.325,1.325,0,0,0-.225.053,1.223,1.223,0,0,0-.577.386.912.912,0,0,0-.211.576" transform="translate(-132.739 -623.484)" fill="#ffb93e"/>
      <path id="패스_17921" data-name="패스 17921" d="M319.15,741.473h27.218a1.074,1.074,0,0,0,1.1-.979c0-.017,0-.035,0-.053v-2.678c0-.018,0-.035,0-.053a1.074,1.074,0,0,0-1.1-.979H322.492a8.316,8.316,0,0,1-3.343,4.743" transform="translate(-270.092 -623.485)" fill="#ffa412"/>
      <rect id="사각형_7198" data-name="사각형 7198" width="0.577" height="4.743" transform="translate(30.292 113.245)" fill="#ffa412"/>
      <rect id="사각형_7199" data-name="사각형 7199" width="0.578" height="4.743" transform="translate(32.246 113.245)" fill="#ffa412"/>
      <rect id="사각형_7200" data-name="사각형 7200" width="0.577" height="4.743" transform="translate(34.59 113.245)" fill="#ffa412"/>
      <rect id="사각형_7201" data-name="사각형 7201" width="0.578" height="4.743" transform="translate(38.183 113.245)" fill="#ffa412"/>
      <rect id="사각형_7202" data-name="사각형 7202" width="0.577" height="4.743" transform="translate(41.982 113.245)" fill="#ffa412"/>
      <rect id="사각형_7203" data-name="사각형 7203" width="0.577" height="4.743" transform="translate(47.807 113.245)" fill="#ffa412"/>
      <rect id="사각형_7204" data-name="사각형 7204" width="0.577" height="4.743" transform="translate(53.26 113.245)" fill="#ffa412"/>
      <rect id="사각형_7205" data-name="사각형 7205" width="0.577" height="4.743" transform="translate(58.129 113.245)" fill="#ffa412"/>
      <rect id="사각형_7206" data-name="사각형 7206" width="0.577" height="4.743" transform="translate(28.431 113.245)" fill="#ffa412"/>
      <rect id="사각형_7207" data-name="사각형 7207" width="0.577" height="4.743" transform="translate(27.202 113.245)" fill="#ffa412"/>
      <rect id="사각형_7208" data-name="사각형 7208" width="0.577" height="4.743" transform="translate(26.015 113.245)" fill="#ffa412"/>
      <path id="패스_17922" data-name="패스 17922" d="M163.436,736.747v4.71a1.422,1.422,0,0,0,.217.016h.361V736.73h-.361a1.422,1.422,0,0,0-.217.017" transform="translate(-138.314 -623.485)" fill="#ffa412"/>
      <path id="패스_17923" data-name="패스 17923" d="M158.22,737.568V741.4a1.225,1.225,0,0,0,.577.386v-4.6a1.224,1.224,0,0,0-.577.386" transform="translate(-133.899 -623.867)" fill="#ffa412"/>
      <path id="패스_17924" data-name="패스 17924" d="M192.187,706.906v2.678a.912.912,0,0,0,.211.576,1.224,1.224,0,0,0,.577.386,1.3,1.3,0,0,0,.225.053,1.405,1.405,0,0,0,.217.017h50.8a1.161,1.161,0,0,0,1.228-.979c0-.018,0-.035,0-.053v-2.678c0-.018,0-.035,0-.053a1.161,1.161,0,0,0-1.228-.979h-50.8c-.033,0-.065,0-.1,0l-.041,0-.046.005-.033,0a1.314,1.314,0,0,0-.225.053l-.032.011-.031.011-.062.025-.035.016-.031.016-.058.031c-.022.013-.043.026-.063.039s-.032.021-.048.032l0,0-.031.023a1.024,1.024,0,0,0-.089.077l-.024.024-.024.025c-.016.017-.031.035-.046.052a.912.912,0,0,0-.211.576" transform="translate(-162.645 -597.372)" fill="#ffb93e"/>
      <path id="패스_17925" data-name="패스 17925" d="M354.488,710.616h27.218a1.074,1.074,0,0,0,1.1-.979c0-.018,0-.035,0-.053v-2.678c0-.018,0-.035,0-.053a1.074,1.074,0,0,0-1.1-.979H357.831c-.011.039-.022.078-.033.117a8.3,8.3,0,0,1-3.31,4.626" transform="translate(-299.998 -597.371)" fill="#ffa412"/>
      <rect id="사각형_7209" data-name="사각형 7209" width="0.577" height="4.743" transform="translate(35.724 108.502)" fill="#ffa412"/>
      <rect id="사각형_7210" data-name="사각형 7210" width="0.577" height="4.743" transform="translate(37.679 108.502)" fill="#ffa412"/>
      <rect id="사각형_7211" data-name="사각형 7211" width="0.577" height="4.743" transform="translate(40.022 108.502)" fill="#ffa412"/>
      <rect id="사각형_7212" data-name="사각형 7212" width="0.577" height="4.743" transform="translate(43.615 108.502)" fill="#ffa412"/>
      <rect id="사각형_7213" data-name="사각형 7213" width="0.577" height="4.743" transform="translate(47.414 108.502)" fill="#ffa412"/>
      <rect id="사각형_7214" data-name="사각형 7214" width="0.577" height="4.743" transform="translate(53.238 108.502)" fill="#ffa412"/>
      <rect id="사각형_7215" data-name="사각형 7215" width="0.577" height="4.743" transform="translate(58.692 108.502)" fill="#ffa412"/>
      <rect id="사각형_7216" data-name="사각형 7216" width="0.577" height="4.743" transform="translate(63.561 108.502)" fill="#ffa412"/>
      <rect id="사각형_7217" data-name="사각형 7217" width="0.577" height="4.743" transform="translate(33.863 108.502)" fill="#ffa412"/>
      <rect id="사각형_7218" data-name="사각형 7218" width="0.577" height="4.743" transform="translate(32.634 108.502)" fill="#ffa412"/>
      <rect id="사각형_7219" data-name="사각형 7219" width="0.577" height="4.743" transform="translate(31.447 108.502)" fill="#ffa412"/>
      <path id="패스_17926" data-name="패스 17926" d="M198.775,705.889v4.71a1.43,1.43,0,0,0,.217.016h.361v-4.743h-.361a1.438,1.438,0,0,0-.217.016" transform="translate(-168.221 -597.371)" fill="#ffa412"/>
      <path id="패스_17927" data-name="패스 17927" d="M193.558,706.713v3.831a1.225,1.225,0,0,0,.577.387v-4.6a1.224,1.224,0,0,0-.577.386" transform="translate(-163.806 -597.754)" fill="#ffa412"/>
      <path id="패스_17928" data-name="패스 17928" d="M175.111,676.811v2.678a.912.912,0,0,0,.211.576,1.224,1.224,0,0,0,.577.386,1.32,1.32,0,0,0,.225.053,1.436,1.436,0,0,0,.217.017h50.8a1.41,1.41,0,0,0,.567-.117,1.054,1.054,0,0,0,.657-.816c0-.015,0-.031,0-.046s0-.035,0-.053v-2.678c0-.018,0-.035,0-.053a1.161,1.161,0,0,0-1.228-.979h-50.8a1.421,1.421,0,0,0-.217.017,1.32,1.32,0,0,0-.225.053,1.224,1.224,0,0,0-.577.386.912.912,0,0,0-.211.576" transform="translate(-148.194 -571.903)" fill="#ffb93e"/>
      <path id="패스_17929" data-name="패스 17929" d="M337.411,680.523h27.218a1.139,1.139,0,0,0,.506-.117,1.036,1.036,0,0,0,.586-.816c0-.015,0-.031,0-.046s0-.035,0-.053v-2.678c0-.018,0-.035,0-.053a1.074,1.074,0,0,0-1.1-.979H340.754a8.324,8.324,0,0,1-3.175,4.626l-.167.117" transform="translate(-285.546 -571.904)" fill="#ffa412"/>
      <rect id="사각형_7220" data-name="사각형 7220" width="0.577" height="4.743" transform="translate(33.099 103.876)" fill="#ffa412"/>
      <rect id="사각형_7221" data-name="사각형 7221" width="0.577" height="4.743" transform="translate(35.053 103.876)" fill="#ffa412"/>
      <rect id="사각형_7222" data-name="사각형 7222" width="0.577" height="4.743" transform="translate(37.397 103.876)" fill="#ffa412"/>
      <rect id="사각형_7223" data-name="사각형 7223" width="0.577" height="4.743" transform="translate(40.99 103.876)" fill="#ffa412"/>
      <rect id="사각형_7224" data-name="사각형 7224" width="0.577" height="4.743" transform="translate(44.789 103.876)" fill="#ffa412"/>
      <rect id="사각형_7225" data-name="사각형 7225" width="0.577" height="4.743" transform="translate(50.613 103.876)" fill="#ffa412"/>
      <rect id="사각형_7226" data-name="사각형 7226" width="0.577" height="4.743" transform="translate(56.067 103.876)" fill="#ffa412"/>
      <rect id="사각형_7227" data-name="사각형 7227" width="0.577" height="4.743" transform="translate(60.936 103.876)" fill="#ffa412"/>
      <rect id="사각형_7228" data-name="사각형 7228" width="0.578" height="4.743" transform="translate(31.238 103.876)" fill="#ffa412"/>
      <rect id="사각형_7229" data-name="사각형 7229" width="0.577" height="4.743" transform="translate(30.009 103.876)" fill="#ffa412"/>
      <rect id="사각형_7230" data-name="사각형 7230" width="0.577" height="4.743" transform="translate(28.822 103.876)" fill="#ffa412"/>
      <path id="패스_17930" data-name="패스 17930" d="M181.7,675.8v4.71a1.438,1.438,0,0,0,.217.016h.361v-4.743h-.361a1.422,1.422,0,0,0-.217.017" transform="translate(-153.768 -571.903)" fill="#ffa412"/>
      <path id="패스_17931" data-name="패스 17931" d="M176.481,676.618v3.831a1.224,1.224,0,0,0,.577.386v-4.6a1.223,1.223,0,0,0-.577.386" transform="translate(-149.354 -572.285)" fill="#ffa412"/>
      <path id="패스_17932" data-name="패스 17932" d="M167.194,645.956v2.679a.912.912,0,0,0,.211.576,1.222,1.222,0,0,0,.577.386,1.315,1.315,0,0,0,.225.053,1.421,1.421,0,0,0,.217.017h50.8a1.161,1.161,0,0,0,1.228-.979c0-.018,0-.036,0-.053v-2.679c0-.018,0-.035,0-.053a1.133,1.133,0,0,0-1.082-.972,1.37,1.37,0,0,0-.145-.007h-50.8a1.421,1.421,0,0,0-.217.017,1.314,1.314,0,0,0-.225.053,1.222,1.222,0,0,0-.577.386.912.912,0,0,0-.211.576" transform="translate(-141.494 -545.791)" fill="#ffb93e"/>
      <path id="패스_17933" data-name="패스 17933" d="M329.494,649.667h27.218a1.074,1.074,0,0,0,1.1-.979c0-.018,0-.036,0-.053v-2.679c0-.018,0-.035,0-.053a1.065,1.065,0,0,0-.966-.972,1.09,1.09,0,0,0-.13-.007H332.836l0,.007a8.315,8.315,0,0,1-3.34,4.736" transform="translate(-278.846 -545.791)" fill="#ffa412"/>
      <rect id="사각형_7231" data-name="사각형 7231" width="0.577" height="4.743" transform="translate(31.882 99.133)" fill="#ffa412"/>
      <rect id="사각형_7232" data-name="사각형 7232" width="0.577" height="4.743" transform="translate(33.836 99.133)" fill="#ffa412"/>
      <rect id="사각형_7233" data-name="사각형 7233" width="0.577" height="4.743" transform="translate(36.18 99.133)" fill="#ffa412"/>
      <rect id="사각형_7234" data-name="사각형 7234" width="0.577" height="4.743" transform="translate(39.773 99.133)" fill="#ffa412"/>
      <rect id="사각형_7235" data-name="사각형 7235" width="0.577" height="4.743" transform="translate(43.572 99.133)" fill="#ffa412"/>
      <rect id="사각형_7236" data-name="사각형 7236" width="0.577" height="4.743" transform="translate(49.396 99.133)" fill="#ffa412"/>
      <rect id="사각형_7237" data-name="사각형 7237" width="0.577" height="4.743" transform="translate(54.85 99.133)" fill="#ffa412"/>
      <rect id="사각형_7238" data-name="사각형 7238" width="0.577" height="4.743" transform="translate(59.719 99.133)" fill="#ffa412"/>
      <rect id="사각형_7239" data-name="사각형 7239" width="0.577" height="4.743" transform="translate(30.021 99.133)" fill="#ffa412"/>
      <rect id="사각형_7240" data-name="사각형 7240" width="0.578" height="4.743" transform="translate(28.792 99.133)" fill="#ffa412"/>
      <rect id="사각형_7241" data-name="사각형 7241" width="0.577" height="4.743" transform="translate(27.605 99.133)" fill="#ffa412"/>
      <path id="패스_17934" data-name="패스 17934" d="M173.78,644.939v4.71a1.408,1.408,0,0,0,.217.017h.361v-4.743H174a1.408,1.408,0,0,0-.217.017" transform="translate(-147.068 -545.789)" fill="#ffa412"/>
      <path id="패스_17935" data-name="패스 17935" d="M168.564,645.761v3.831a1.224,1.224,0,0,0,.577.386v-4.6a1.225,1.225,0,0,0-.577.386" transform="translate(-142.653 -546.172)" fill="#ffa412"/>
      <path id="패스_17936" data-name="패스 17936" d="M191.493,615.148v2.678a.912.912,0,0,0,.211.576,1.222,1.222,0,0,0,.577.386,1.316,1.316,0,0,0,.225.053l.071.009.04,0,.04,0,.065,0h50.8a1.161,1.161,0,0,0,1.228-.979c0-.018,0-.035,0-.053v-2.678c0-.018,0-.035,0-.053s0-.029,0-.043a1.113,1.113,0,0,0-.922-.9l-.037-.008a1.469,1.469,0,0,0-.266-.024h-50.8c-.037,0-.074,0-.11,0l-.049,0h0l-.057.008a1.322,1.322,0,0,0-.225.053,1.224,1.224,0,0,0-.577.386.912.912,0,0,0-.211.576" transform="translate(-162.058 -519.718)" fill="#ffb93e"/>
      <path id="패스_17937" data-name="패스 17937" d="M353.794,618.86h27.218a1.074,1.074,0,0,0,1.1-.979c0-.018,0-.035,0-.053v-2.678c0-.018,0-.035,0-.053s0-.029,0-.044a1.06,1.06,0,0,0-.851-.91.428.428,0,0,0-.047-.009,1.155,1.155,0,0,0-.194-.017H357.137c0,.011-.006.022-.009.034a8.31,8.31,0,0,1-3.322,4.7l-.011.007" transform="translate(-299.411 -519.719)" fill="#ffa412"/>
      <rect id="사각형_7242" data-name="사각형 7242" width="0.577" height="4.743" transform="translate(35.617 94.398)" fill="#ffa412"/>
      <rect id="사각형_7243" data-name="사각형 7243" width="0.577" height="4.743" transform="translate(37.572 94.398)" fill="#ffa412"/>
      <rect id="사각형_7244" data-name="사각형 7244" width="0.577" height="4.743" transform="translate(39.915 94.398)" fill="#ffa412"/>
      <rect id="사각형_7245" data-name="사각형 7245" width="0.577" height="4.743" transform="translate(43.508 94.398)" fill="#ffa412"/>
      <rect id="사각형_7246" data-name="사각형 7246" width="0.577" height="4.743" transform="translate(47.307 94.398)" fill="#ffa412"/>
      <rect id="사각형_7247" data-name="사각형 7247" width="0.577" height="4.743" transform="translate(53.132 94.398)" fill="#ffa412"/>
      <rect id="사각형_7248" data-name="사각형 7248" width="0.577" height="4.743" transform="translate(58.585 94.398)" fill="#ffa412"/>
      <rect id="사각형_7249" data-name="사각형 7249" width="0.577" height="4.743" transform="translate(63.454 94.398)" fill="#ffa412"/>
      <rect id="사각형_7250" data-name="사각형 7250" width="0.577" height="4.743" transform="translate(33.757 94.398)" fill="#ffa412"/>
      <rect id="사각형_7251" data-name="사각형 7251" width="0.577" height="4.743" transform="translate(32.527 94.398)" fill="#ffa412"/>
      <rect id="사각형_7252" data-name="사각형 7252" width="0.578" height="4.743" transform="translate(31.34 94.398)" fill="#ffa412"/>
      <path id="패스_17938" data-name="패스 17938" d="M198.08,614.133v4.71a1.422,1.422,0,0,0,.217.016h.361v-4.743H198.3a1.422,1.422,0,0,0-.217.016" transform="translate(-167.633 -519.718)" fill="#ffa412"/>
      <path id="패스_17939" data-name="패스 17939" d="M192.864,614.954v3.831a1.225,1.225,0,0,0,.577.386v-4.6a1.224,1.224,0,0,0-.577.386" transform="translate(-163.218 -520.101)" fill="#ffa412"/>
      <path id="패스_17940" data-name="패스 17940" d="M192.187,584.511v2.678a.912.912,0,0,0,.211.576,1.224,1.224,0,0,0,.577.386,1.289,1.289,0,0,0,.175.045h0l.048.008a1.421,1.421,0,0,0,.217.016h50.8a1.326,1.326,0,0,0,.159-.009l.06-.008a1.117,1.117,0,0,0,1.008-.962c0-.018,0-.035,0-.053v-2.678c0-.018,0-.035,0-.053a1.161,1.161,0,0,0-1.228-.979h-50.8c-.033,0-.065,0-.1,0l-.041,0-.046.005-.033,0a1.326,1.326,0,0,0-.225.053l-.032.011-.031.011-.062.025-.067.032-.058.031-.063.04-.048.032,0,0-.031.023a1.048,1.048,0,0,0-.089.077l-.024.024-.024.025c-.016.017-.031.035-.046.052a.912.912,0,0,0-.211.576" transform="translate(-162.645 -493.791)" fill="#ffb93e"/>
      <path id="패스_17941" data-name="패스 17941" d="M354.488,588.223h27.218l.065,0c.024,0,.047,0,.07-.006a1.063,1.063,0,0,0,.961-.971c0-.018,0-.035,0-.053v-2.679c0-.018,0-.035,0-.053a1.074,1.074,0,0,0-1.1-.979H357.831c-.011.039-.022.077-.033.117a8.3,8.3,0,0,1-3.261,4.592l-.049.034" transform="translate(-299.998 -493.791)" fill="#ffa412"/>
      <rect id="사각형_7253" data-name="사각형 7253" width="0.577" height="4.743" transform="translate(35.724 89.689)" fill="#ffa412"/>
      <rect id="사각형_7254" data-name="사각형 7254" width="0.577" height="4.743" transform="translate(37.679 89.689)" fill="#ffa412"/>
      <rect id="사각형_7255" data-name="사각형 7255" width="0.577" height="4.743" transform="translate(40.022 89.689)" fill="#ffa412"/>
      <rect id="사각형_7256" data-name="사각형 7256" width="0.577" height="4.743" transform="translate(43.615 89.689)" fill="#ffa412"/>
      <rect id="사각형_7257" data-name="사각형 7257" width="0.577" height="4.743" transform="translate(47.414 89.689)" fill="#ffa412"/>
      <rect id="사각형_7258" data-name="사각형 7258" width="0.577" height="4.743" transform="translate(53.238 89.689)" fill="#ffa412"/>
      <rect id="사각형_7259" data-name="사각형 7259" width="0.577" height="4.743" transform="translate(58.692 89.689)" fill="#ffa412"/>
      <rect id="사각형_7260" data-name="사각형 7260" width="0.577" height="4.743" transform="translate(63.561 89.689)" fill="#ffa412"/>
      <rect id="사각형_7261" data-name="사각형 7261" width="0.577" height="4.743" transform="translate(33.863 89.689)" fill="#ffa412"/>
      <rect id="사각형_7262" data-name="사각형 7262" width="0.577" height="4.743" transform="translate(32.634 89.689)" fill="#ffa412"/>
      <rect id="사각형_7263" data-name="사각형 7263" width="0.577" height="4.743" transform="translate(31.447 89.689)" fill="#ffa412"/>
      <path id="패스_17942" data-name="패스 17942" d="M198.775,583.5v4.71a1.422,1.422,0,0,0,.217.017h.361v-4.743h-.361a1.438,1.438,0,0,0-.217.016" transform="translate(-168.221 -493.792)" fill="#ffa412"/>
      <path id="패스_17943" data-name="패스 17943" d="M193.558,584.319v3.831a1.223,1.223,0,0,0,.577.386v-4.6a1.224,1.224,0,0,0-.577.386" transform="translate(-163.806 -494.174)" fill="#ffa412"/>
      <path id="패스_17944" data-name="패스 17944" d="M175.111,554.417V557.1a.912.912,0,0,0,.211.576,1.224,1.224,0,0,0,.577.386,1.314,1.314,0,0,0,.225.053,1.436,1.436,0,0,0,.217.017h50.8a1.408,1.408,0,0,0,.567-.117,1.054,1.054,0,0,0,.657-.816c0-.015,0-.031,0-.046s0-.035,0-.053v-2.678c0-.018,0-.035,0-.053a1.161,1.161,0,0,0-1.228-.979h-50.8a1.413,1.413,0,0,0-.217.017,1.332,1.332,0,0,0-.225.053,1.225,1.225,0,0,0-.577.386.912.912,0,0,0-.211.577" transform="translate(-148.194 -468.322)" fill="#ffb93e"/>
      <path id="패스_17945" data-name="패스 17945" d="M337.411,558.128h27.218a1.139,1.139,0,0,0,.506-.117,1.036,1.036,0,0,0,.586-.816c0-.015,0-.031,0-.046s0-.035,0-.053v-2.678c0-.018,0-.035,0-.053a1.074,1.074,0,0,0-1.1-.979H340.754a8.325,8.325,0,0,1-3.175,4.626l-.167.117" transform="translate(-285.546 -468.322)" fill="#ffa412"/>
      <rect id="사각형_7264" data-name="사각형 7264" width="0.577" height="4.743" transform="translate(33.099 85.063)" fill="#ffa412"/>
      <rect id="사각형_7265" data-name="사각형 7265" width="0.577" height="4.743" transform="translate(35.053 85.063)" fill="#ffa412"/>
      <rect id="사각형_7266" data-name="사각형 7266" width="0.577" height="4.743" transform="translate(37.397 85.063)" fill="#ffa412"/>
      <rect id="사각형_7267" data-name="사각형 7267" width="0.577" height="4.743" transform="translate(40.99 85.063)" fill="#ffa412"/>
      <rect id="사각형_7268" data-name="사각형 7268" width="0.577" height="4.743" transform="translate(44.789 85.063)" fill="#ffa412"/>
      <rect id="사각형_7269" data-name="사각형 7269" width="0.577" height="4.743" transform="translate(50.613 85.063)" fill="#ffa412"/>
      <rect id="사각형_7270" data-name="사각형 7270" width="0.577" height="4.743" transform="translate(56.067 85.063)" fill="#ffa412"/>
      <rect id="사각형_7271" data-name="사각형 7271" width="0.577" height="4.743" transform="translate(60.936 85.063)" fill="#ffa412"/>
      <rect id="사각형_7272" data-name="사각형 7272" width="0.578" height="4.743" transform="translate(31.238 85.063)" fill="#ffa412"/>
      <rect id="사각형_7273" data-name="사각형 7273" width="0.577" height="4.743" transform="translate(30.009 85.063)" fill="#ffa412"/>
      <rect id="사각형_7274" data-name="사각형 7274" width="0.577" height="4.743" transform="translate(28.822 85.063)" fill="#ffa412"/>
      <path id="패스_17946" data-name="패스 17946" d="M181.7,553.4v4.71a1.438,1.438,0,0,0,.217.016h.361v-4.743h-.361a1.438,1.438,0,0,0-.217.016" transform="translate(-153.768 -468.323)" fill="#ffa412"/>
      <path id="패스_17947" data-name="패스 17947" d="M176.481,554.223v3.831a1.225,1.225,0,0,0,.577.386v-4.6a1.225,1.225,0,0,0-.577.386" transform="translate(-149.354 -468.705)" fill="#ffa412"/>
      <path id="패스_17948" data-name="패스 17948" d="M148.1,523.561v2.679a.912.912,0,0,0,.211.576,1.224,1.224,0,0,0,.577.386,1.3,1.3,0,0,0,.225.053,1.409,1.409,0,0,0,.217.017h50.8a1.161,1.161,0,0,0,1.228-.979c0-.018,0-.035,0-.053v-2.679c0-.017,0-.035,0-.053a1.133,1.133,0,0,0-1.082-.972,1.381,1.381,0,0,0-.145-.007h-50.8a1.416,1.416,0,0,0-.217.017,1.333,1.333,0,0,0-.225.053,1.225,1.225,0,0,0-.577.386.912.912,0,0,0-.211.576" transform="translate(-125.336 -442.209)" fill="#ffb93e"/>
      <path id="패스_17949" data-name="패스 17949" d="M310.4,527.273H337.62a1.074,1.074,0,0,0,1.1-.979c0-.018,0-.035,0-.053v-2.679c0-.018,0-.035,0-.053a1.066,1.066,0,0,0-.966-.972,1.09,1.09,0,0,0-.13-.007H313.744l0,.007a8.315,8.315,0,0,1-3.34,4.736" transform="translate(-262.689 -442.21)" fill="#ffa412"/>
      <rect id="사각형_7275" data-name="사각형 7275" width="0.577" height="4.743" transform="translate(28.947 80.32)" fill="#ffa412"/>
      <rect id="사각형_7276" data-name="사각형 7276" width="0.577" height="4.743" transform="translate(30.902 80.32)" fill="#ffa412"/>
      <rect id="사각형_7277" data-name="사각형 7277" width="0.577" height="4.743" transform="translate(33.245 80.32)" fill="#ffa412"/>
      <rect id="사각형_7278" data-name="사각형 7278" width="0.577" height="4.743" transform="translate(36.838 80.32)" fill="#ffa412"/>
      <rect id="사각형_7279" data-name="사각형 7279" width="0.577" height="4.743" transform="translate(40.637 80.32)" fill="#ffa412"/>
      <rect id="사각형_7280" data-name="사각형 7280" width="0.577" height="4.743" transform="translate(46.462 80.32)" fill="#ffa412"/>
      <rect id="사각형_7281" data-name="사각형 7281" width="0.577" height="4.743" transform="translate(51.915 80.32)" fill="#ffa412"/>
      <rect id="사각형_7282" data-name="사각형 7282" width="0.577" height="4.743" transform="translate(56.784 80.32)" fill="#ffa412"/>
      <rect id="사각형_7283" data-name="사각형 7283" width="0.577" height="4.743" transform="translate(27.086 80.32)" fill="#ffa412"/>
      <rect id="사각형_7284" data-name="사각형 7284" width="0.577" height="4.743" transform="translate(25.857 80.32)" fill="#ffa412"/>
      <rect id="사각형_7285" data-name="사각형 7285" width="0.578" height="4.743" transform="translate(24.67 80.32)" fill="#ffa412"/>
      <path id="패스_17950" data-name="패스 17950" d="M154.686,522.547v4.71a1.438,1.438,0,0,0,.217.016h.361V522.53H154.9a1.438,1.438,0,0,0-.217.016" transform="translate(-130.909 -442.21)" fill="#ffa412"/>
      <path id="패스_17951" data-name="패스 17951" d="M149.47,523.367V527.2a1.224,1.224,0,0,0,.577.386v-4.6a1.225,1.225,0,0,0-.577.386" transform="translate(-126.494 -442.592)" fill="#ffa412"/>
      <path id="패스_17952" data-name="패스 17952" d="M191.493,492.753v2.678a.912.912,0,0,0,.211.576,1.223,1.223,0,0,0,.577.386,1.322,1.322,0,0,0,.225.053l.071.009.057,0,.029,0h50.865a1.161,1.161,0,0,0,1.228-.979c0-.018,0-.035,0-.053v-2.678c0-.018,0-.035,0-.053a1.161,1.161,0,0,0-1.228-.979h-50.8l-.065,0a1.5,1.5,0,0,0-.152.015,1.322,1.322,0,0,0-.225.053c-.037.012-.073.025-.107.04s-.043.018-.063.029l-.007,0-.062.032-.01.006c-.019.01-.037.022-.055.034a1.023,1.023,0,0,0-.122.09c-.012.01-.024.02-.035.03l-.006.006-.021.019,0,0c-.012.012-.024.024-.036.038s-.033.036-.049.056a.912.912,0,0,0-.211.576" transform="translate(-162.058 -416.137)" fill="#ffb93e"/>
      <path id="패스_17953" data-name="패스 17953" d="M353.794,496.465h27.218a1.074,1.074,0,0,0,1.1-.979c0-.018,0-.035,0-.053v-2.678c0-.018,0-.035,0-.053a1.074,1.074,0,0,0-1.1-.979H357.137c-.009.036-.02.072-.031.109a8.3,8.3,0,0,1-3.3,4.626l-.011.007" transform="translate(-299.411 -416.138)" fill="#ffa412"/>
      <rect id="사각형_7286" data-name="사각형 7286" width="0.577" height="4.743" transform="translate(35.617 75.584)" fill="#ffa412"/>
      <rect id="사각형_7287" data-name="사각형 7287" width="0.577" height="4.743" transform="translate(37.572 75.584)" fill="#ffa412"/>
      <rect id="사각형_7288" data-name="사각형 7288" width="0.577" height="4.743" transform="translate(39.915 75.584)" fill="#ffa412"/>
      <rect id="사각형_7289" data-name="사각형 7289" width="0.577" height="4.743" transform="translate(43.508 75.584)" fill="#ffa412"/>
      <rect id="사각형_7290" data-name="사각형 7290" width="0.577" height="4.743" transform="translate(47.307 75.584)" fill="#ffa412"/>
      <rect id="사각형_7291" data-name="사각형 7291" width="0.577" height="4.743" transform="translate(53.132 75.584)" fill="#ffa412"/>
      <rect id="사각형_7292" data-name="사각형 7292" width="0.577" height="4.743" transform="translate(58.585 75.584)" fill="#ffa412"/>
      <rect id="사각형_7293" data-name="사각형 7293" width="0.577" height="4.743" transform="translate(63.454 75.584)" fill="#ffa412"/>
      <rect id="사각형_7294" data-name="사각형 7294" width="0.577" height="4.743" transform="translate(33.757 75.584)" fill="#ffa412"/>
      <rect id="사각형_7295" data-name="사각형 7295" width="0.577" height="4.743" transform="translate(32.527 75.584)" fill="#ffa412"/>
      <rect id="사각형_7296" data-name="사각형 7296" width="0.578" height="4.743" transform="translate(31.34 75.584)" fill="#ffa412"/>
      <path id="패스_17954" data-name="패스 17954" d="M198.08,491.738v4.71a1.434,1.434,0,0,0,.217.016h.361v-4.743H198.3a1.434,1.434,0,0,0-.217.016" transform="translate(-167.633 -416.138)" fill="#ffa412"/>
      <path id="패스_17955" data-name="패스 17955" d="M192.864,492.56v3.831a1.224,1.224,0,0,0,.577.386v-4.6a1.225,1.225,0,0,0-.577.386" transform="translate(-163.218 -416.52)" fill="#ffa412"/>
      <path id="패스_17956" data-name="패스 17956" d="M167.194,462.611v2.679a.911.911,0,0,0,.211.576,1.223,1.223,0,0,0,.577.386,1.3,1.3,0,0,0,.225.053,1.413,1.413,0,0,0,.217.017h50.8a1.4,1.4,0,0,0,.549-.11,1.057,1.057,0,0,0,.675-.827c0-.014,0-.028,0-.042s0-.036,0-.053v-2.679c0-.018,0-.035,0-.053a1.133,1.133,0,0,0-1.082-.972,1.37,1.37,0,0,0-.145-.007h-50.8a1.421,1.421,0,0,0-.217.017,1.331,1.331,0,0,0-.225.053,1.223,1.223,0,0,0-.577.386.911.911,0,0,0-.211.576" transform="translate(-141.494 -390.628)" fill="#ffb93e"/>
      <path id="패스_17957" data-name="패스 17957" d="M329.494,466.322h27.218a1.137,1.137,0,0,0,.49-.11,1.038,1.038,0,0,0,.6-.827c0-.013,0-.028,0-.042s0-.035,0-.053v-2.679c0-.018,0-.035,0-.053a1.065,1.065,0,0,0-.966-.972,1.077,1.077,0,0,0-.13-.007H332.836l0,.007a8.321,8.321,0,0,1-3.184,4.626c-.051.037-.1.074-.156.11" transform="translate(-278.846 -390.628)" fill="#ffa412"/>
      <rect id="사각형_7297" data-name="사각형 7297" width="0.577" height="4.743" transform="translate(31.882 70.951)" fill="#ffa412"/>
      <rect id="사각형_7298" data-name="사각형 7298" width="0.577" height="4.743" transform="translate(33.836 70.951)" fill="#ffa412"/>
      <rect id="사각형_7299" data-name="사각형 7299" width="0.577" height="4.743" transform="translate(36.18 70.951)" fill="#ffa412"/>
      <rect id="사각형_7300" data-name="사각형 7300" width="0.577" height="4.743" transform="translate(39.773 70.951)" fill="#ffa412"/>
      <rect id="사각형_7301" data-name="사각형 7301" width="0.577" height="4.743" transform="translate(43.572 70.951)" fill="#ffa412"/>
      <rect id="사각형_7302" data-name="사각형 7302" width="0.577" height="4.743" transform="translate(49.396 70.951)" fill="#ffa412"/>
      <rect id="사각형_7303" data-name="사각형 7303" width="0.577" height="4.743" transform="translate(54.85 70.951)" fill="#ffa412"/>
      <rect id="사각형_7304" data-name="사각형 7304" width="0.577" height="4.743" transform="translate(59.719 70.951)" fill="#ffa412"/>
      <rect id="사각형_7305" data-name="사각형 7305" width="0.577" height="4.743" transform="translate(30.021 70.951)" fill="#ffa412"/>
      <rect id="사각형_7306" data-name="사각형 7306" width="0.578" height="4.743" transform="translate(28.792 70.951)" fill="#ffa412"/>
      <rect id="사각형_7307" data-name="사각형 7307" width="0.577" height="4.743" transform="translate(27.605 70.951)" fill="#ffa412"/>
      <path id="패스_17958" data-name="패스 17958" d="M173.78,461.594v4.71a1.435,1.435,0,0,0,.217.016h.361v-4.743H174a1.439,1.439,0,0,0-.217.016" transform="translate(-147.068 -390.627)" fill="#ffa412"/>
      <path id="패스_17959" data-name="패스 17959" d="M168.564,462.417v3.831a1.223,1.223,0,0,0,.577.386v-4.6a1.223,1.223,0,0,0-.577.386" transform="translate(-142.653 -391.011)" fill="#ffa412"/>
      <path id="패스_17960" data-name="패스 17960" d="M156.849,431.8v2.679a.912.912,0,0,0,.211.576,1.224,1.224,0,0,0,.577.386,1.3,1.3,0,0,0,.225.053l.071.009.04,0,.04,0,.065,0h50.8a1.161,1.161,0,0,0,1.228-.979c0-.018,0-.035,0-.053V431.8c0-.018,0-.035,0-.053a1.161,1.161,0,0,0-1.228-.979h-50.8a1.412,1.412,0,0,0-.217.017,1.311,1.311,0,0,0-.225.053,1.224,1.224,0,0,0-.577.386.912.912,0,0,0-.211.576" transform="translate(-132.739 -364.556)" fill="#ffb93e"/>
      <path id="패스_17961" data-name="패스 17961" d="M319.15,435.515h27.218a1.074,1.074,0,0,0,1.1-.979c0-.018,0-.035,0-.053V431.8c0-.018,0-.035,0-.053a1.074,1.074,0,0,0-1.1-.979H322.492a8.314,8.314,0,0,1-3.332,4.735l-.011.007" transform="translate(-270.092 -364.557)" fill="#ffa412"/>
      <rect id="사각형_7308" data-name="사각형 7308" width="0.577" height="4.743" transform="translate(30.292 66.215)" fill="#ffa412"/>
      <rect id="사각형_7309" data-name="사각형 7309" width="0.577" height="4.743" transform="translate(32.246 66.215)" fill="#ffa412"/>
      <rect id="사각형_7310" data-name="사각형 7310" width="0.578" height="4.743" transform="translate(34.59 66.215)" fill="#ffa412"/>
      <rect id="사각형_7311" data-name="사각형 7311" width="0.577" height="4.743" transform="translate(38.183 66.215)" fill="#ffa412"/>
      <rect id="사각형_7312" data-name="사각형 7312" width="0.577" height="4.743" transform="translate(41.982 66.215)" fill="#ffa412"/>
      <rect id="사각형_7313" data-name="사각형 7313" width="0.577" height="4.743" transform="translate(47.806 66.215)" fill="#ffa412"/>
      <rect id="사각형_7314" data-name="사각형 7314" width="0.577" height="4.743" transform="translate(53.26 66.215)" fill="#ffa412"/>
      <rect id="사각형_7315" data-name="사각형 7315" width="0.577" height="4.743" transform="translate(58.129 66.215)" fill="#ffa412"/>
      <rect id="사각형_7316" data-name="사각형 7316" width="0.577" height="4.743" transform="translate(28.431 66.215)" fill="#ffa412"/>
      <rect id="사각형_7317" data-name="사각형 7317" width="0.577" height="4.743" transform="translate(27.202 66.215)" fill="#ffa412"/>
      <rect id="사각형_7318" data-name="사각형 7318" width="0.577" height="4.743" transform="translate(26.015 66.215)" fill="#ffa412"/>
      <path id="패스_17962" data-name="패스 17962" d="M163.436,430.788v4.71a1.414,1.414,0,0,0,.217.017h.361v-4.743h-.361a1.414,1.414,0,0,0-.217.017" transform="translate(-138.314 -364.556)" fill="#ffa412"/>
      <path id="패스_17963" data-name="패스 17963" d="M158.219,431.609v3.831a1.224,1.224,0,0,0,.577.386v-4.6a1.224,1.224,0,0,0-.577.386" transform="translate(-133.899 -364.938)" fill="#ffa412"/>
      <path id="패스_17964" data-name="패스 17964" d="M413.734,477.646a24.146,24.146,0,1,0-24.146,24.145,24.146,24.146,0,0,0,24.146-24.145" transform="translate(-309.27 -383.791)" fill="#e2810e"/>
      <path id="패스_17965" data-name="패스 17965" d="M427.437,477.646a24.146,24.146,0,1,0-24.146,24.145,24.146,24.146,0,0,0,24.146-24.145" transform="translate(-320.866 -383.791)" fill="#ffb93e"/>
      <path id="패스_17966" data-name="패스 17966" d="M399.553,506.874a22,22,0,1,1,15.556,6.443,21.855,21.855,0,0,1-15.556-6.443m-5.131-15.556a20.687,20.687,0,1,0,20.687-20.687,20.71,20.71,0,0,0-20.687,20.687" transform="translate(-332.684 -397.178)" fill="#ffa412"/>
    </g>
  </g>
  <text id="_" data-name="₩" transform="translate(68.236 104.136)" fill="#ffa412" font-size="25" font-family="BlackHanSans-Regular, Black Han Sans"><tspan x="0" y="0">₩</tspan></text>
  <g id="그룹_5851" data-name="그룹 5851">
    <g id="그룹_5850" data-name="그룹 5850" clip-path="url(#clip-path)">
      <path id="패스_17967" data-name="패스 17967" d="M246.705,391.017a16.053,16.053,0,0,0,5.582,5.964h12.937s-20.4-9.247-18.519-5.964" transform="translate(-208.679 -330.316)" fill="#233862"/>
      <path id="패스_17968" data-name="패스 17968" d="M252.632,552.413a1.2,1.2,0,0,1,.213,1.279.01.01,0,0,1,0,.006,7.949,7.949,0,0,1-2.512,2.756c-.151.122-.286.233-.4.336-.031.027-.062.054-.09.081l-.07.063c-1.1,1.018-.689,1.251-2.672,3.316-2.262,2.354-3.819,2.4-4.262,2.181-.375-.183.387-1.431,1.23-2.834.041-.068.081-.136.123-.2.112-.186.224-.376.336-.563.989-1.688.735-2.481.5-4.993-.191-2.042-3.177-11.408-3.177-11.408l4.335-.747s1.305,7.458,2.744,8.607c.769.612,1.63.62,2.369,1.073q.078.047.154.1a5.686,5.686,0,0,1,1.186.953" transform="translate(-204.67 -458.419)" fill="#ffb27d"/>
      <path id="패스_17969" data-name="패스 17969" d="M257.527,605.708a1.2,1.2,0,0,1,.213,1.279.01.01,0,0,1,0,.006,9.207,9.207,0,0,1-2.516,2.747c-.15.124-.282.238-.4.345-.031.027-.062.054-.091.081l-.07.063c-1.1,1.018-.689,1.251-2.672,3.316-2.262,2.354-3.819,2.4-4.262,2.182-.375-.183.387-1.431,1.23-2.834a9.639,9.639,0,0,0,4.032-2.971c1.362-1.738,2.27-3.971,3.2-5.265q.078.047.154.1a5.683,5.683,0,0,1,1.186.953" transform="translate(-209.565 -511.714)" fill="#233862"/>
      <path id="패스_17970" data-name="패스 17970" d="M13.01,542.444c-.268,1.338-2.175,1.115-4.306.594s-1.624.1-4.657-.238S.1,541.334,0,540.884c-.083-.4,1.416-.541,3.023-.727.2-.023.405-.048.608-.073,1.815-.228,3.143-1.4,4.792-2.36,1.561-.911,3.891-4.622,3.891-4.622l4.159.329s-2.182,3.315-3.027,4.756a5.026,5.026,0,0,0-.408,2.834,5.336,5.336,0,0,1-.032,1.423" transform="translate(-0.001 -451.157)" fill="#ffb27d"/>
      <path id="패스_17971" data-name="패스 17971" d="M8.7,581.881c-2.131-.521-1.624.1-4.657-.237S.1,580.177,0,579.726c-.083-.4,1.416-.541,3.023-.726l.015.031a8.549,8.549,0,0,0,4.343,1.35c2.057.05,4.237-.539,5.658-.516a5.343,5.343,0,0,1-.032,1.423c-.268,1.338-2.175,1.115-4.306.594" transform="translate(0 -490)" fill="#233862"/>
      <path id="패스_17972" data-name="패스 17972" d="M188.325,384.168l3.888,10.462,5.076,13.66a8.223,8.223,0,0,0,2.7-.246,11.692,11.692,0,0,0,2.608-1.27s-1.409-14.667-4.039-23.086a14.994,14.994,0,0,0-2.262-4.893c-4.076-4.817-7.967,5.374-7.967,5.374" transform="translate(-159.377 -319.474)" fill="#233862"/>
      <path id="패스_17973" data-name="패스 17973" d="M87.464,301.28c2.547-.822,9.812.233,17.109,1.662l1.528-2.52,15.762-1.231s5.2,11.535,2.354,18.884c-.419,1.08-1.454,1.536-2.872,1.559l0,0s-9.406.23-12.452.23c-7.839,0-16.59-5.388-17.722-5.615-1.853-.371-2.594,3.335-4.447,7.226s-17.417,17.232-17.417,17.232a13.7,13.7,0,0,1-3.38-.347,3.329,3.329,0,0,1-1.452-.916s17.246-34.313,22.99-36.166" transform="translate(-54.563 -253.201)" fill="#2b478b"/>
      <path id="패스_17974" data-name="패스 17974" d="M313.338,25.513c5.613,3.091,17,9.5,17.059,9.456,0,0,4.185,1.577,6.56,0,3.957-2.628,6.08-9.7-1.158-15.789-3.609-3.036-6.174-3.775-6.564-8.622-.211-2.63-3.806-11.309-9.779-10.507a9.113,9.113,0,0,1-1.505.1,5.591,5.591,0,0,0-3.031.783c-3.38,2.013-10,23.383-1.582,24.58" transform="translate(-261.707 0)" fill="#233862"/>
      <path id="패스_17975" data-name="패스 17975" d="M362.556,100.275c-.025.016,2.762.967,4.625.142,1.753-.775,3.081-3.658,3.055-3.66-.8-.037-1.673-.734-2.347-5.308l-.34.122-5.709,2.054s.414,1.832.681,3.576c.225,1.464.346,2.867.035,3.074" transform="translate(-306.22 -77.392)" fill="#ffb27d"/>
      <path id="패스_17976" data-name="패스 17976" d="M361.841,94.3s.414,1.832.681,3.576c3.279-.59,4.566-3.857,5.028-5.63Z" transform="translate(-306.221 -78.063)" fill="#ed975d"/>
      <path id="패스_17977" data-name="패스 17977" d="M334.233,41.793s7.81-1.048,7.083-5.9-.21-8.258-5.227-7.794-5.707,2.461-5.858,4.14,1.952,9.7,4,9.556" transform="translate(-279.463 -23.742)" fill="#ffb27d"/>
      <path id="패스_17978" data-name="패스 17978" d="M332.124,27.214s5,4.309,8.4,4.656,4.688-.744,4.688-.744A13.281,13.281,0,0,1,342,26.775a2.391,2.391,0,0,0-1.971-1.41c-2.429-.21-7.032-.305-7.907,1.848" transform="translate(-281.072 -21.379)" fill="#233862"/>
      <path id="패스_17979" data-name="패스 17979" d="M330.224,30.3a12.311,12.311,0,0,0-2.2,2.817,9.456,9.456,0,0,0-.256,5.026s-2.606-5.067-1.131-7.529c1.565-2.611,3.586-.313,3.586-.313" transform="translate(-276.046 -24.853)" fill="#233862"/>
      <path id="패스_17980" data-name="패스 17980" d="M323.7,139.992c.236,15.81.065,12.507,1.794,14.007a6.639,6.639,0,0,0,3.13.678c4.848.322,13.37-.477,13.694-1.373,1.118-3.1.329-4.063,1.262-8.809.1-.5.218-1.051.359-1.646.778-3.26,1.535-4.369-1.225-9.606-2.5-4.744-5.1-8.594-5.337-8.455-6.6,3.92-7.135.625-7.135.625s-6.658,6.867-6.543,14.579" transform="translate(-273.943 -105.603)" fill="#fff"/>
      <path id="패스_17981" data-name="패스 17981" d="M213.618,428.689l5.076,13.66a8.224,8.224,0,0,0,2.7-.246A11.7,11.7,0,0,0,224,440.834s-1.41-14.667-4.039-23.086Z" transform="translate(-180.782 -353.534)" fill="#2b478b"/>
      <path id="패스_17982" data-name="패스 17982" d="M294.233,128.867s-6.794,1.152-7.592,4.077-5.493,20.122-5.493,20.122,3.454.621,5.049-.975,5.552-14.8,5.552-14.8Z" transform="translate(-237.932 -109.058)" fill="#fff"/>
      <path id="패스_17983" data-name="패스 17983" d="M355.746,226.944c4.848.322,13.37-.477,13.694-1.373,1.118-3.1.329-4.063,1.262-8.809l-2.338-6.584s.387,7.332-1.776,9.261-8.853,3.723-9.9,5.334a5.894,5.894,0,0,0-.938,2.172" transform="translate(-301.063 -177.87)" fill="#ebf3ff"/>
      <path id="패스_17984" data-name="패스 17984" d="M345.259,295.114s-4.783-1.065-5.555-.641a11.234,11.234,0,0,0-2.894,2.508c-.236.538,1.718-.408,2.354-.579a5.658,5.658,0,0,1,2.032.445,6.751,6.751,0,0,0,3.64.365Z" transform="translate(-285.022 -249.125)" fill="#ffb27d"/>
      <path id="패스_17985" data-name="패스 17985" d="M390.832,124.785s6.422.4,8.645,3.5c3.129,4.365,9.338,22.967,5.78,25.448-4.007,2.794-18.236.731-18.236.731s-.473-2.213.185-3.284,11.365-2.8,11.859-3.294-6.177-9.636-6.177-11.118-2.057-11.979-2.057-11.979" transform="translate(-327.391 -105.604)" fill="#fff"/>
      <path id="패스_17986" data-name="패스 17986" d="M343.936,303.685a9.254,9.254,0,0,1-1.331,1.447.98.98,0,0,1-.541.116l.675-1.215Z" transform="translate(-289.484 -257.005)" fill="#ffb27d"/>
      <path id="패스_17987" data-name="패스 17987" d="M339.7,295.024l-2.914,1.415a.519.519,0,0,0,.483.186,6.955,6.955,0,0,0,1.264-.347Z" transform="translate(-285.022 -249.675)" fill="#ffb27d"/>
      <path id="패스_17988" data-name="패스 17988" d="M180.518,231.059H157.47l-6.933-17.241h23.012Z" transform="translate(-127.397 -180.952)" fill="#f99746"/>
      <path id="패스_17989" data-name="패스 17989" d="M193.885,321.611h30.435v.672H194.155Z" transform="translate(-164.082 -272.175)" fill="#ed7d2b"/>
      <path id="패스_17990" data-name="패스 17990" d="M233.248,263.857a.8.8,0,0,1,.783-1.1,1.573,1.573,0,0,1,1.412,1.1.8.8,0,0,1-.783,1.1,1.572,1.572,0,0,1-1.412-1.1" transform="translate(-197.357 -222.37)" fill="#fff"/>
    </g>
  </g>
</svg>
