<svg xmlns="http://www.w3.org/2000/svg" xmlns:xlink="http://www.w3.org/1999/xlink" width="151.35" height="123.27" viewBox="0 0 151.35 123.27">
  <defs>
    <clipPath id="clip-path">
      <rect id="사각형_7191" data-name="사각형 7191" width="151.35" height="123.27" fill="none"/>
    </clipPath>
  </defs>
  <g id="그룹_5841" data-name="그룹 5841" transform="translate(0 0)">
    <g id="그룹_5840" data-name="그룹 5840" transform="translate(0 0.001)" clip-path="url(#clip-path)">
      <path id="패스_17644" data-name="패스 17644" d="M63.536,44.338l.5,51.959c.026,2.7.79,4.264,4.646,4.761,4.8.617,6.251-.228,6.961-1.546C76.979,97.033,90.068,47.378,92.229,44s-28.693.337-28.693.337" transform="translate(32.835 22.006)" fill="#c1bbd3"/>
      <path id="패스_17645" data-name="패스 17645" d="M63.644,55.529l-.108-11.191S94.389,40.624,92.228,44c-.51.8-2.522,7.2-4.03,12.154Z" transform="translate(32.835 22.006)" fill="#928aa8"/>
      <path id="패스_17646" data-name="패스 17646" d="M128.323,42.011a5.835,5.835,0,0,1,5.735,4.5,28.184,28.184,0,0,1,.655,6.043c.026,2.961-.2,4.886-.922,6.506a5.7,5.7,0,0,1-5.04,3.26C118.2,62.7,80.216,64.194,72.3,66.055c-9.221,2.168-40.106,15.876-40.106,15.876l5.888-69.465s28.37,22.995,46.382,26.57c14.011,2.782,35.159,3.011,43.861,2.974" transform="translate(16.636 6.442)" fill="#d0d1de"/>
      <path id="패스_17647" data-name="패스 17647" d="M86.929,53.5c-3.927.188-8.016.4-12.033.629,2.521-8.139,1.524-17.443.238-22.993,4.016.378,8.121.64,12.062.825A42.365,42.365,0,0,1,86.929,53.5" transform="translate(38.706 16.092)" fill="#2b478b"/>
      <path id="패스_17648" data-name="패스 17648" d="M12.324,49.258c-.2,25.114,11.761,45.568,26.712,45.684S66.267,74.8,66.464,49.685,54.7,4.117,39.752,4,12.52,24.145,12.324,49.258" transform="translate(6.368 2.066)" fill="#e5e6ed"/>
      <path id="패스_17649" data-name="패스 17649" d="M13.654,46.967C13.485,68.33,23.66,85.729,36.378,85.829s23.163-17.137,23.331-38.5S49.7,8.566,36.985,8.466,13.821,25.6,13.654,46.967" transform="translate(7.055 4.374)" fill="#2b478b"/>
      <path id="패스_17650" data-name="패스 17650" d="M32.062,41.44c-.546-7.61,4.435-14.168,11.127-14.648a10.986,10.986,0,0,1,6.374,1.57,63.475,63.475,0,0,1,.654,9.51,61.446,61.446,0,0,1-2.155,15.816,10.7,10.7,0,0,1-2.9.661c-6.691.479-12.558-5.3-13.1-12.909" transform="translate(16.548 13.832)" fill="#ffb93e"/>
      <path id="패스_17651" data-name="패스 17651" d="M58.643,19.191a3.546,3.546,0,0,0-.293-2.324c.393.065.972.124.94-.1-.044-.311-.111-.755.114-.714a1.619,1.619,0,0,1,.585.3,2.632,2.632,0,0,0,1.35.329c.159.531.611,1.35.32,1.923-.149.3-.94.156-1.294.291a5.993,5.993,0,0,1-1.723.3" transform="translate(30.155 8.291)" fill="#f88667"/>
      <path id="패스_17652" data-name="패스 17652" d="M65.872,1.949A17.9,17.9,0,0,1,73.746,3.9L71.634,13.09a9.643,9.643,0,0,0-5.142-1.132Z" transform="translate(34.042 1.005)" fill="#ffb93e"/>
      <path id="패스_17653" data-name="패스 17653" d="M68.082,6.774c-.02-1.532-.115-3.064-.15-4.594a14.067,14.067,0,0,0-2.06-.232l.619,10.009c.862-1.312,1.273-1.021,1.442-1.182-.006-1.323.165-2.689.149-4" transform="translate(34.042 1.006)" fill="#884900"/>
      <path id="패스_17654" data-name="패스 17654" d="M53.822,3.436S65.8-1.274,73.645.334l.517,11.449s-6.961-1.54-16.6,2.68Z" transform="translate(27.815 -0.001)" fill="#ffb93e"/>
      <rect id="사각형_7190" data-name="사각형 7190" width="1.031" height="28.714" transform="matrix(0.945, -0.328, 0.328, 0.945, 81.189, 3.59)" fill="#110239"/>
      <path id="패스_17655" data-name="패스 17655" d="M59.92,21.423V18.182s9.673.076,13.729-1.088,9.491-5.934,11.654-5.162,3.545,2.976.859,5.086S77.1,20.951,74.333,21.373c-1.916.293-12.888.049-14.413.05" transform="translate(30.966 6.123)" fill="#c22e06"/>
      <path id="패스_17656" data-name="패스 17656" d="M73.642,19.345c3.416-1.42,6.641-4.509,9.392-7.39,2.051.831,3.273,2.962.666,5.008-2.685,2.108-9.061,3.932-11.825,4.355-.943.144-4.074.158-7.2.135a31.356,31.356,0,0,0,8.963-2.108" transform="translate(33.426 6.178)" fill="#6c1700"/>
      <path id="패스_17657" data-name="패스 17657" d="M72.972,42.919s1.89,3.052,1.612,3.777-6.847,4.538-7.731,4.233-1.056-1.347.121-2.4c1.057-.943,2.09-1.21,2.8-2.131.62-.807,0-2.868,0-2.868Z" transform="translate(34.182 22.18)" fill="#110239"/>
      <path id="패스_17658" data-name="패스 17658" d="M84.476,26.191a4.106,4.106,0,0,1-2.7.9c-1.388-.181-14.919,1.226-16.307,2.371S69.755,53.5,69.755,53.5l4.705-.784s-1.687-16.736-1.4-16.858,7.385-.094,19.5-.094c2.956,0,6.254-6.213,2.515-10.557Z" transform="translate(33.719 13.025)" fill="#ffb93e"/>
      <path id="패스_17659" data-name="패스 17659" d="M77.271,9.316a5.316,5.316,0,0,0,1.267-.8c.187,1.391.708,3.957,2.128,5.3a10.606,10.606,0,0,1-5.344.68,17.426,17.426,0,0,0-.215-4.866,4.774,4.774,0,0,0,2.164-.314" transform="translate(38.815 4.401)" fill="#f88667"/>
      <path id="패스_17660" data-name="패스 17660" d="M78.708,13.29a3.56,3.56,0,0,0-3.37-2.353,6.71,6.71,0,0,0-.231-1.307,4.768,4.768,0,0,0,2.163-.314,5.316,5.316,0,0,0,1.267-.8c.187,1.391.71,3.957,2.128,5.3a12.523,12.523,0,0,1-1.738.532,4.478,4.478,0,0,0-.218-1.059" transform="translate(38.815 4.401)" fill="#e45940"/>
      <path id="패스_17661" data-name="패스 17661" d="M79.683,4.031s-3.469-1.091-4.564-.407a4.968,4.968,0,0,0-1.761,4.1c.19,1.259-1.256,2.721-1.294,3.176-.03.366,1.1.628,1.135.767s.1,2.436,1.621,2.823c2.139.545,5-1.174,5.982-2.469s2.142-7.211-1.119-7.987" transform="translate(37.242 1.756)" fill="#f88667"/>
      <path id="패스_17662" data-name="패스 17662" d="M73.05,4.916c.184-.184.652-.479.767-.716a4.645,4.645,0,0,1,.264-.6c.385-.563.476-.975,2.063-1.471a4.927,4.927,0,0,1,4.229.94A4,4,0,0,1,81.38,4.235c.076.135.315.508.258.651-.073.179-.585.3-.746.394a6.718,6.718,0,0,0-.781.633c-1.582,1.285-4.056,2.66-5.8.877a7.5,7.5,0,0,1-.654-.751,4.676,4.676,0,0,0-.479,2.3,2.055,2.055,0,0,1-.707-1.115,2.375,2.375,0,0,1,.578-2.312" transform="translate(37.415 1.017)" fill="#110239"/>
      <path id="패스_17663" data-name="패스 17663" d="M78.7,3.893a2.863,2.863,0,0,1,1.644-.058,1.992,1.992,0,0,1,1.562,1.747,8.4,8.4,0,0,1,.164,1.628,6.238,6.238,0,0,1-.407,2.465,5.885,5.885,0,0,1-1.449,2.3c-.614.557-1.819,1.2-2.421.956a4.684,4.684,0,0,1-.507-2.2c.059-.417.265-.423.595-.61.554-.314,1.171-.931.767-1.6C78.073,7.562,77,8,76.615,9.32c0,0-.419.742-.657.623s-1.3-3.866,2.742-6.05" transform="translate(39.098 1.934)" fill="#110239"/>
      <path id="패스_17664" data-name="패스 17664" d="M77.8,7a.917.917,0,0,0-1.028.27c-.414.482-.218,1.262.19.969s.246-.546.317-.786A.757.757,0,0,1,77.8,7" transform="translate(39.558 3.586)" fill="#e45940"/>
      <path id="패스_17665" data-name="패스 17665" d="M92.162,31.955s-4.9,3.8-15.059,2.108a22.118,22.118,0,0,0-.827-5.77,54.6,54.6,0,0,1-2.168-11.349,6.193,6.193,0,0,1,1.776-4.807s1.908,1.788,4.752-.543a12.479,12.479,0,0,1,7.91,7.4,66.818,66.818,0,0,1,3.615,12.956" transform="translate(38.299 5.991)" fill="#c22e06"/>
      <path id="패스_17666" data-name="패스 17666" d="M79.685,14.8c2.623,2.833.085,9.806-3.231,13.7a17.5,17.5,0,0,0-.42-1.781c-.45-1.5-1.013-3.754-1.455-5.981A5.275,5.275,0,0,0,76.7,18.216c1.019-2.469,1.681-4.141,2.984-3.411" transform="translate(38.542 7.561)" fill="#6c1700"/>
      <path id="패스_17667" data-name="패스 17667" d="M65.452,27.6a2.662,2.662,0,0,1-1.235.637,1.583,1.583,0,0,0-.629.161,3.431,3.431,0,0,1-.7.252,1.341,1.341,0,0,0-.666.317c-.2.235.187.309.452.322.288.014,1.045-.481,1.273-.275s-.734.749-.927.855c-.454.249-.789.05-1.259.058-.273,0-.4.088-.209.343.141.19.417.2.634.212a2.793,2.793,0,0,0,1.35-.22,3.266,3.266,0,0,1-1.238.335c-.243.02-1.3-.083-1.3.3-.008.775,2.33.281,2.674.012a3.874,3.874,0,0,1-1.224.417c-.25.058-.845.167-.519.488.484.475,1.635-.309,2.211-.569a4.529,4.529,0,0,1-1.056.631c-.482.255-.126.52.413.344a5.961,5.961,0,0,0,.745-.349,4.164,4.164,0,0,0,1.844-1.958c.187-.334.877-.748.807-1.071-.133-.625-.986-.948-1.438-1.247" transform="translate(31.521 14.261)" fill="#f88667"/>
      <path id="패스_17668" data-name="패스 17668" d="M63.46,34.2l1.967,2.667s12.592-5.451,13.724-6.892a72.382,72.382,0,0,0,5.413-8.119c1.342-3.261,3.008-7.147,0-7.828-1.641-.372-2.7.041-3.719,2.459a66.606,66.606,0,0,1-5.536,10.075c-.464.613-11.849,7.64-11.849,7.64" transform="translate(32.796 7.186)" fill="#c22e06"/>
      <path id="패스_17669" data-name="패스 17669" d="M57.63,16.861c-.179.284.311,1.5.78,2.008a.873.873,0,0,0,1.166.083c.393-.237.862-.323.921-.552.083-.906-.755-.226-1.127-.093,0,0,1.013-.5,1-.937-.039-.818-1.286.126-1.637.282a2.074,2.074,0,0,0,.963-.64.313.313,0,0,0,.038-.478c-.27-.252-1.33.51-1.33.51.19-.137.965-.416.654-.774-.208-.237-.519-.038-.707.018a1.109,1.109,0,0,0-.72.572" transform="translate(29.763 8.349)" fill="#f88667"/>
      <path id="패스_17670" data-name="패스 17670" d="M59.978,17.1c-.117-.047-.231-.071-.344-.108,0-.006.009-.008.009-.015-.046-.309-1.224-.388-1.485-.525-.79-.413-.472-.91-.114-.8.246.077.8.241,1.013.337a3.967,3.967,0,0,0,.819.094,5.981,5.981,0,0,1,1.016.7c.4.267-.485.485-.915.311" transform="translate(29.802 8.079)" fill="#f88667"/>
      <path id="패스_17671" data-name="패스 17671" d="M1.16,22.836c-.261.71,2.089,2.225,5.248,3.385s5.931,1.527,6.192.818-2.089-2.225-5.248-3.387-5.931-1.526-6.192-.816" transform="translate(0.589 11.614)" fill="#d0d1de"/>
      <path id="패스_17672" data-name="패스 17672" d="M4.951,13.442c-.3.693,1.96,2.34,5.048,3.678s5.834,1.86,6.134,1.166-1.958-2.34-5.046-3.678-5.835-1.86-6.135-1.166" transform="translate(2.545 6.788)" fill="#d0d1de"/>
      <path id="패스_17673" data-name="패스 17673" d="M2.143,49.117c.223.722,3.011.5,6.225-.5s5.639-2.39,5.415-3.112-3.011-.5-6.225.5-5.639,2.389-5.415,3.111" transform="translate(1.1 23.299)" fill="#d0d1de"/>
      <path id="패스_17674" data-name="패스 17674" d="M6,59.55c.282.7,3.041.25,6.164-1.006S17.586,55.7,17.3,55s-3.041-.252-6.163,1.006S5.717,58.849,6,59.55" transform="translate(3.088 28.252)" fill="#d0d1de"/>
      <path id="패스_17675" data-name="패스 17675" d="M0,35.931c.039.755,2.8,1.226,6.157,1.051s6.054-.928,6.014-1.684-2.8-1.226-6.157-1.051S-.039,35.176,0,35.931" transform="translate(0 17.679)" fill="#d0d1de"/>
    </g>
  </g>
</svg>
