<svg xmlns="http://www.w3.org/2000/svg" xmlns:xlink="http://www.w3.org/1999/xlink" width="218" height="274" viewBox="0 0 218 274">
  <defs>
    <clipPath id="clip-path">
      <rect id="사각형_5772" data-name="사각형 5772" width="218" height="274" transform="translate(200.514 307)" fill="#c22e06"/>
    </clipPath>
    <clipPath id="clip-path-2">
      <rect id="사각형_5771" data-name="사각형 5771" width="236.952" height="202.675" transform="translate(0 0)" fill="none"/>
    </clipPath>
    <linearGradient id="linear-gradient" x1="0.5" x2="0.5" y2="1" gradientUnits="objectBoundingBox">
      <stop offset="0" stop-opacity="0"/>
      <stop offset="1"/>
    </linearGradient>
  </defs>
  <g id="마스크_그룹_1" data-name="마스크 그룹 1" transform="translate(-200.514 -307)" clip-path="url(#clip-path)">
    <g id="그룹_3934" data-name="그룹 3934" transform="translate(297.662 377.412) rotate(-9)">
      <g id="그룹_3933" data-name="그룹 3933" transform="translate(-25.705 -8.903)" clip-path="url(#clip-path-2)">
        <path id="패스_17919" data-name="패스 17919" d="M24.479,156.5.844,24.644,96.409,39.78,118.1,144.855Z" transform="translate(0.183 5.328)" fill="url(#linear-gradient)"/>
        <path id="패스_17515" data-name="패스 17515" d="M228.834,150.006l-93.9,14.2a3.852,3.852,0,0,1-4.384-3.232L109.025,18.626a3.851,3.851,0,0,1,3.232-4.384l93.9-14.2a3.851,3.851,0,0,1,4.384,3.232l21.527,142.348a3.851,3.851,0,0,1-3.232,4.384" transform="translate(-99.132 0.002)" fill="#3d4f65"/>
        <rect id="사각형_5709" data-name="사각형 5709" width="95.071" height="133.844" transform="translate(14.693 25.553) rotate(-8.6)" fill="#fff"/>
        <rect id="사각형_5710" data-name="사각형 5710" width="41.54" height="8.891" transform="translate(38.444 11.472) rotate(-8.6)" fill="#bcbcbc"/>
        <path id="패스_17516" data-name="패스 17516" d="M433.173,100.393a1.962,1.962,0,0,1,2.234,1.647l.732,4.842a1.963,1.963,0,0,1-1.647,2.234L390.6,115.753a1.962,1.962,0,0,1-2.234-1.647l-.732-4.842a1.962,1.962,0,0,1,1.647-2.234Zm-.187-1.236L389.1,105.794a3.216,3.216,0,0,0-2.7,3.657l.732,4.842a3.216,3.216,0,0,0,3.657,2.7l43.889-6.637a3.216,3.216,0,0,0,2.7-3.657l-.732-4.842a3.216,3.216,0,0,0-3.657-2.7" transform="translate(-351.447 -90.162)" fill="#8c8c8c"/>
        <rect id="사각형_5711" data-name="사각형 5711" width="43.554" height="2.657" transform="matrix(0.989, -0.15, 0.15, 0.989, 37.886, 14.753)" fill="#fff"/>
        <rect id="사각형_5712" data-name="사각형 5712" width="43.554" height="1.372" transform="matrix(0.989, -0.15, 0.15, 0.989, 38.079, 16.024)" fill="#a5a5a5"/>
        <path id="패스_17517" data-name="패스 17517" d="M1072.933,701.7c.784-.03,20.938,10.326,45.431,9.22l-24.9-26.985Z" transform="translate(-975.966 -622.124)" fill="#d3a97a"/>
        <path id="패스_17518" data-name="패스 17518" d="M1074.548,639.34,1058.47,627.9a15.586,15.586,0,0,0-3-1.393,7.854,7.854,0,0,0-5.449.163l-22.958,9.255,12.384,5.29,11.222-5.166s1.523-.678,3.791,2.149l6.556,7a7.81,7.81,0,0,1,1.186,9.081,6.234,6.234,0,0,1-1.074,1.448l16.827,3.5.264-11.263s.429-5.657-3.675-8.633" transform="translate(-934.245 -569.516)" fill="#edbe85"/>
        <path id="패스_17519" data-name="패스 17519" d="M353.768,776.127l1,6.628,6.606-1a6.672,6.672,0,1,1-7.609-5.63" transform="translate(-316.641 -705.984)" fill="#f55f13"/>
        <path id="패스_17520" data-name="패스 17520" d="M418.553,764.426a6.57,6.57,0,0,1,7.476,5.615.331.331,0,0,0,.032.063l-6.5.983Z" transform="translate(-380.726 -695.272)" fill="#ff9566"/>
        <path id="패스_17521" data-name="패스 17521" d="M269.686,373.978a14.407,14.407,0,1,0,4.62,28.44,14.843,14.843,0,0,0,6.216-2.452l-9-11.7Z" transform="translate(-234.204 -340.179)" fill="#606c7a"/>
        <path id="패스_17522" data-name="패스 17522" d="M413.077,344.677l1.841,15.466,15.447,2.027a15.575,15.575,0,0,0-17.287-17.493" transform="translate(-375.745 -313.425)" fill="#e1dbd0"/>
        <path id="패스_17523" data-name="패스 17523" d="M445.974,532.011,428.5,528.789l12.347,12.653a17.875,17.875,0,0,0,5.129-9.43" transform="translate(-389.772 -480.999)" fill="#343f42"/>
        <rect id="사각형_5713" data-name="사각형 5713" width="4.652" height="13.035" transform="matrix(0.989, -0.15, 0.15, 0.989, 69.51, 130.161)" fill="#343f42"/>
        <rect id="사각형_5714" data-name="사각형 5714" width="4.652" height="22.306" transform="matrix(0.989, -0.15, 0.15, 0.989, 74.787, 119.986)" fill="#343f42"/>
        <rect id="사각형_5715" data-name="사각형 5715" width="4.652" height="24.69" transform="matrix(0.989, -0.15, 0.15, 0.989, 81.094, 116.622)" fill="#343f42"/>
        <rect id="사각형_5716" data-name="사각형 5716" width="4.652" height="15.685" transform="translate(89.104 124.517) rotate(-8.6)" fill="#343f42"/>
        <rect id="사각형_5717" data-name="사각형 5717" width="4.652" height="29.104" transform="matrix(0.989, -0.15, 0.15, 0.989, 93.761, 110.242)" fill="#343f42"/>
        <rect id="사각형_5718" data-name="사각형 5718" width="4.652" height="33.341" transform="matrix(0.989, -0.15, 0.15, 0.989, 99.791, 105.045)" fill="#343f42"/>
        <rect id="사각형_5719" data-name="사각형 5719" width="4.652" height="16.303" transform="matrix(0.989, -0.15, 0.15, 0.989, 109.002, 120.883)" fill="#343f42"/>
        <rect id="사각형_5720" data-name="사각형 5720" width="4.652" height="20.806" transform="matrix(0.989, -0.15, 0.15, 0.989, 114.992, 115.424)" fill="#343f42"/>
        <rect id="사각형_5721" data-name="사각형 5721" width="4.652" height="17.28" transform="matrix(0.989, -0.15, 0.15, 0.989, 62.211, 126.972)" fill="#343f42"/>
        <rect id="사각형_5722" data-name="사각형 5722" width="4.652" height="17.28" transform="matrix(0.989, -0.15, 0.15, 0.989, 42.221, 129.995)" fill="#343f42"/>
        <rect id="사각형_5723" data-name="사각형 5723" width="4.652" height="33.837" transform="matrix(0.989, -0.15, 0.15, 0.989, 53.072, 111.608)" fill="#343f42"/>
        <rect id="사각형_5724" data-name="사각형 5724" width="4.652" height="26.951" transform="matrix(0.989, -0.15, 0.15, 0.989, 47.438, 119.425)" fill="#343f42"/>
        <rect id="사각형_5725" data-name="사각형 5725" width="4.652" height="38.642" transform="matrix(0.989, -0.15, 0.15, 0.989, 32.363, 109.88)" fill="#343f42"/>
        <path id="패스_17524" data-name="패스 17524" d="M444.816,728.793l.453,2.995L363.8,744.109l-1.415-9.356,0-.107.331.008.219,1.446.289-.014.213,1.785.511-.1-.036-.4.391-.077.119,1.124.345-.052.059,1.054.217-.061.328,2,.3-.045-.425-2.644.294-.059-.219-1.782.538-.109.01.231.319-.058.032.46.235-.026.086.9.419-.063.052.505.5-.05.254,2.516.443-.075-.409-2.364.2-.07-.552-3.734.292-.073-.235-2.052.417-.082.218,1.107.268-.06.533,4.191.3-.035-.267-2.105.421-.054.31,2.3.411-.033.23,2.188.458-.058-.1-1.075.345-.052-.01-.4.3-.045-.217-1.269.291-.076-.333-1.788.293-.065-.424-2.468.31-.038-.25-1.818.417-.082.263,1.826.283-.053.7,4.776.393-.069-.384-2.126.281-.062-.3-2.052.258-.048-.352-2,.471-.052-.089-.586.334-.07-.057-.378.366-.113-.115-.447.566-.095.044.449.362-.055.077.508.379.058.334,2.492.253-.067-.165-1.251.114-.076-.1-1.145.624-.046.479,2.837.247-.037.521,3.526.368-.07-.357-2.026.244-.058-.745-4.508.244-.057-.231-1.86.342-.071.131.7.2-.011.112.988.343-.071-.231-2.111.274-.022.549,4.547.375-.1-.384-2.629.157-.043-.392-2.589.4-.069.406,2.269.235-.036.36,2.634.4-.06.16,1.81.283-.051.312,2.313.283-.043.043.866.679-.092-.05-.417.409-.052.423,3.213.507-.067-1.532-9.463.418-.073-1.482-8.881.232-.054-.234-1.879.355-.073.155,1.107.333.037.673,4.615.274-.022.72,5.681.171-.036.284,2.132.295-.054-.213-1.572.381-.067-.213-1.495.516-.088-.526-3.227.28-.069-.5-3.818.321-.049.165.756.253,0,.1.471.253,0,.348,2.635.3-.035.388,2.648.244-.056-.215-1.5.163-.005-.485-3.02.3-.074-.231-1.53.4-.06.3,1.427.263-.014.8,5.793.233-.045.662,5.293.3-.026.127.841.406-.071-.627-4.072.212-.013-.164-1,.5-.114.336,2.558.28-.061-.172-1.637.319-.058.46,3.623.266.01.5,3.774.194-.029-.2-1.326.221-.053-.294-1.56.34-.042-.047-.312.276-.061.238,1.462.122-.038.209,1.447.469-.071-.2-1.022.257-.053-.186-.916.355-.09-.589-3.893.252-.067-.859-5.138.323-.088-.317-2.1.288-.041-.36-1.992.332-.05-.227-1.5.391-.049.3,2.09.359-.034.171,2.052.233-.045.023.741.235-.026.061.9.317-.067-.116-.6.171-.036-.453-3.074.26-.039-.342-2.592.321-.049.564,3.818.312-.024.671,5.27.332.026.19,1.585.275-.013-.038-.42.22-.047-.109-.558.25-.038-.079-.521.333-.041.078.646.28.006.259,2.029.324-.03.485,3.542.3-.007.353,2.5.15,0-.155-1.194.128-.155-.311-1.887.277-.09-.48-2.257.373-.037-.291-1.425.405-.072.171.8.194.029.164,1.338.287-.02.064.584.457-.069.179,1.183.316-.038.143,1.216.277-.071-.048-.689.4-.041.094.624.379-.038-.134-1.033.41-.033.244,1.123.219-.052-.131-.522.241-.075-.157-.537.628-.191.427,1.994.273-.031-.479-2.75.331-.06-.714-4.387.292-.071-.747-4.438.308-.047-.37-2.7.337-.107.556,4.094.259-.039.559,4.278.235-.035-.026-.34.159-.034-.3-1.936.172-.026-.22-1.54.363-.019.226,1.665.319-.059.3,2.515.225-.015.135.811.34,0,.1.516.42-.063.083.886.317-.072.1.929.28-.061-.077-.423.407-.062.1.834.216-.016.172,1.135.375-.057L407.644,731l.222-.034-.686-3.535.389-.1-.328-1.894.333-.023-.131-.869.389-.04.234,1.327.261-.01.372,3.133h.226l.382,2.19.271-.041-.4-2.459.216-.073-.4-2.492.419-.063.206,1.026.222-.033.582,3.514.285-.032.455,2.928.394-.06-.349-2.056.256-.064-.432-2.523.282-.051-.131-.782.225-.015-.122-.639.312-.1.448,2.793.409-.052-.214-1.331.194-.049-1.046-6.415.294-.061-1.8-11.092.37-.056-1.332-7.8.378-.088-.324-2.107.275-.062-.1-.661.261-.059-.149-.876.431-.056.4,3.177.186-.018.391,3,.22-.043-.091-1.021.431-.075.434,3.037.322-.039.532,4.1.335-.041.345,2.615.285-.031.256,2.11.333-.05.114,1.172.345-.052.235,1.721.348-.035.292,2.266.347-.041.263,1.991.161-.024.294,2.026.432-.065-.446-3.282.419-.063.648,4.617.306-.046.715,4.725.17-.008.079.557.543-.082.049.574.314-.013.058.55.247-.029-.059-.562.22-.043-.133-.715.492-.084.06.484.285-.034.218,1.61.194-.049-.1-.642.243-.066-.064-.609.288-.034.074.491.143,0,.073.711.222-.033.119.951.244-.05-.148-.81.184-.038-.389-2.319.319-.058-.244-1.452.244-.056-.488-3.058.318-.067-1.2-7.628.277-.023-.709-4.69.315-.048.081.289.237-.02.25,2.068.332-.061.645,4.764.348-.033.711,4.879.247-.018.27,1.786.761-.069.167,1.095.308-.047.258,1.538.317-.069-.151-.828.222-.034-.146-.8.2-.041-.271-1.873.233-.048-.278-2.175.246-.037-.234-1.711-.3-2.181.515-.1.36,2.216.272-.042.583,4.193.321-.049.5,3.67.444-.067.093.779.382-.057-.111-.732.682-.123-.143-1.254.568-.076.336,2.3.283-.062.276,1.824.2-.019.06.244.288-.044-.074-.493.316-.025.094.511.3-.045.106.865.395-.06-.1-.513.148-.022-.139-.864.235-.051-.072-.473.931-.16-.233-1.357.293-.063-.275-1.9.321-.039-.23-1.609.416-.082-.166-1.27.342-.071-.778-4.812.341-.082-1.644-10.2.259-.039-.769-5.169.369-.065,1.26,8,.347-.039,1.732,12.035.383-.057.828,5.647.272-.041.216,1.5.706-.082.1.558.8-.1.05.331,2.017-.324-.06-.4.464-.07-.095-.711.442-.082.113.411.754-.1.082.288.792-.1.1.314.544-.072.024.276.522-.1-.223-1.474.353-.036-.235-1.34.411-.062.056.372Z" transform="translate(-329.631 -635.965)" fill="#3f4d50"/>
        <rect id="사각형_5726" data-name="사각형 5726" width="3.361" height="3.361" transform="translate(63.796 55.913) rotate(-8.599)" fill="#f55f13"/>
        <rect id="사각형_5727" data-name="사각형 5727" width="3.361" height="3.361" transform="translate(63.14 51.578) rotate(-8.599)" fill="#f55f13"/>
        <rect id="사각형_5728" data-name="사각형 5728" width="3.361" height="3.361" transform="translate(62.485 47.243) rotate(-8.599)" fill="#f55f13"/>
        <rect id="사각형_5729" data-name="사각형 5729" width="3.361" height="3.361" transform="translate(61.829 42.908) rotate(-8.599)" fill="#606c7a"/>
        <rect id="사각형_5730" data-name="사각형 5730" width="3.361" height="3.361" transform="translate(61.173 38.573) rotate(-8.599)" fill="#606c7a"/>
        <rect id="사각형_5731" data-name="사각형 5731" width="3.361" height="3.361" transform="translate(60.518 34.238) rotate(-8.599)" fill="#606c7a"/>
        <rect id="사각형_5732" data-name="사각형 5732" width="3.361" height="3.361" transform="translate(59.862 29.904) rotate(-8.599)" fill="#606c7a"/>
        <rect id="사각형_5733" data-name="사각형 5733" width="3.361" height="3.361" transform="translate(67.938 55.287) rotate(-8.599)" fill="#f55f13"/>
        <rect id="사각형_5734" data-name="사각형 5734" width="3.361" height="3.361" transform="translate(67.282 50.952) rotate(-8.599)" fill="#f55f13"/>
        <rect id="사각형_5735" data-name="사각형 5735" width="3.361" height="3.361" transform="translate(66.627 46.617) rotate(-8.599)" fill="#f55f13"/>
        <rect id="사각형_5736" data-name="사각형 5736" width="3.361" height="3.361" transform="translate(65.971 42.282) rotate(-8.599)" fill="#606c7a"/>
        <rect id="사각형_5737" data-name="사각형 5737" width="3.361" height="3.361" transform="translate(65.316 37.947) rotate(-8.599)" fill="#606c7a"/>
        <rect id="사각형_5738" data-name="사각형 5738" width="3.361" height="3.361" transform="translate(72.08 54.66) rotate(-8.599)" fill="#f55f13"/>
        <rect id="사각형_5739" data-name="사각형 5739" width="3.361" height="3.361" transform="translate(71.425 50.325) rotate(-8.599)" fill="#f55f13"/>
        <rect id="사각형_5740" data-name="사각형 5740" width="3.361" height="3.361" transform="translate(70.769 45.99) rotate(-8.599)" fill="#f55f13"/>
        <rect id="사각형_5741" data-name="사각형 5741" width="3.361" height="3.361" transform="translate(76.222 54.034) rotate(-8.599)" fill="#f55f13"/>
        <rect id="사각형_5742" data-name="사각형 5742" width="3.361" height="3.361" transform="translate(75.567 49.699) rotate(-8.599)" fill="#f55f13"/>
        <rect id="사각형_5743" data-name="사각형 5743" width="3.361" height="3.361" transform="translate(74.911 45.364) rotate(-8.599)" fill="#f55f13"/>
        <rect id="사각형_5744" data-name="사각형 5744" width="3.361" height="3.361" transform="translate(74.256 41.029) rotate(-8.599)" fill="#606c7a"/>
        <rect id="사각형_5745" data-name="사각형 5745" width="3.361" height="3.361" transform="translate(73.6 36.694) rotate(-8.599)" fill="#606c7a"/>
        <rect id="사각형_5746" data-name="사각형 5746" width="3.361" height="3.361" transform="translate(72.945 32.359) rotate(-8.599)" fill="#606c7a"/>
        <rect id="사각형_5747" data-name="사각형 5747" width="3.361" height="3.361" transform="matrix(0.989, -0.15, 0.15, 0.989, 80.365, 53.407)" fill="#f55f13"/>
        <rect id="사각형_5748" data-name="사각형 5748" width="3.361" height="3.361" transform="matrix(0.989, -0.15, 0.15, 0.989, 79.709, 49.072)" fill="#f55f13"/>
        <rect id="사각형_5749" data-name="사각형 5749" width="3.361" height="3.361" transform="translate(79.054 44.738) rotate(-8.599)" fill="#f55f13"/>
        <rect id="사각형_5750" data-name="사각형 5750" width="3.361" height="3.361" transform="translate(78.398 40.403) rotate(-8.599)" fill="#606c7a"/>
        <rect id="사각형_5751" data-name="사각형 5751" width="3.361" height="3.361" transform="translate(84.507 52.781) rotate(-8.599)" fill="#f55f13"/>
        <rect id="사각형_5752" data-name="사각형 5752" width="3.361" height="3.361" transform="translate(83.851 48.446) rotate(-8.599)" fill="#f55f13"/>
        <rect id="사각형_5753" data-name="사각형 5753" width="3.361" height="3.361" transform="translate(88.649 52.155) rotate(-8.599)" fill="#f55f13"/>
        <rect id="사각형_5754" data-name="사각형 5754" width="3.361" height="3.361" transform="translate(87.994 47.82) rotate(-8.599)" fill="#f55f13"/>
        <rect id="사각형_5755" data-name="사각형 5755" width="3.361" height="3.361" transform="translate(87.338 43.485) rotate(-8.599)" fill="#f55f13"/>
        <rect id="사각형_5756" data-name="사각형 5756" width="3.361" height="3.361" transform="translate(86.683 39.15) rotate(-8.599)" fill="#606c7a"/>
        <rect id="사각형_5757" data-name="사각형 5757" width="3.361" height="3.361" transform="translate(92.791 51.528) rotate(-8.599)" fill="#f55f13"/>
        <rect id="사각형_5758" data-name="사각형 5758" width="3.361" height="3.361" transform="translate(92.136 47.193) rotate(-8.599)" fill="#f55f13"/>
        <rect id="사각형_5759" data-name="사각형 5759" width="3.361" height="3.361" transform="translate(91.48 42.858) rotate(-8.599)" fill="#f55f13"/>
        <rect id="사각형_5760" data-name="사각형 5760" width="3.361" height="3.361" transform="translate(90.825 38.523) rotate(-8.599)" fill="#606c7a"/>
        <rect id="사각형_5761" data-name="사각형 5761" width="3.361" height="3.361" transform="translate(90.169 34.188) rotate(-8.599)" fill="#606c7a"/>
        <rect id="사각형_5762" data-name="사각형 5762" width="3.361" height="3.361" transform="translate(96.934 50.902) rotate(-8.599)" fill="#f55f13"/>
        <rect id="사각형_5763" data-name="사각형 5763" width="3.361" height="3.361" transform="translate(101.076 50.275) rotate(-8.599)" fill="#f55f13"/>
        <rect id="사각형_5764" data-name="사각형 5764" width="3.361" height="3.361" transform="translate(100.42 45.94) rotate(-8.599)" fill="#f55f13"/>
        <rect id="사각형_5765" data-name="사각형 5765" width="3.361" height="3.361" transform="translate(99.765 41.605) rotate(-8.599)" fill="#f55f13"/>
        <rect id="사각형_5766" data-name="사각형 5766" width="3.361" height="3.361" transform="translate(99.109 37.271) rotate(-8.599)" fill="#606c7a"/>
        <rect id="사각형_5767" data-name="사각형 5767" width="3.361" height="3.361" transform="translate(98.454 32.936) rotate(-8.599)" fill="#606c7a"/>
        <rect id="사각형_5768" data-name="사각형 5768" width="3.361" height="3.361" transform="translate(97.798 28.601) rotate(-8.599)" fill="#606c7a"/>
        <path id="패스_17526" data-name="패스 17526" d="M349.123,1022.845l-5.888.837a.906.906,0,0,1-1.027-.788l-.392-3.23s-.157-2.581,3.008-3.442a4.233,4.233,0,0,1,4.233,1.581,7.068,7.068,0,0,1,.683,2.981l.152,1.031a.906.906,0,0,1-.769,1.029" transform="translate(-310.923 -924.306)" fill="#f5e0cd"/>
        <path id="패스_17532" data-name="패스 17532" d="M906.011,730.89s-10.349,1.093-10.481,1.553,8.974,6.676,8.974,6.676l1.718-3.637Z" transform="translate(-814.595 -664.836)" fill="#bf945c"/>
        <path id="패스_17533" data-name="패스 17533" d="M993.764,730.765l48.169,8.982-1.511,8.013L992.285,739s-.68-1.11.364-1.579c0,0-.9-.9.355-1.608,0,0-.854-.863.288-1.84a.929.929,0,0,1,.2-1.522s-.713-.588.276-1.685" transform="translate(-902.409 -664.722)" fill="#f55f13"/>
        <path id="패스_17534" data-name="패스 17534" d="M1064.386,791.271a29.173,29.173,0,0,1-8.523-6.737l-6.034-7.187a5.361,5.361,0,0,0-5.226-1.411,2.187,2.187,0,0,0-.413.17,6.743,6.743,0,0,0-3.61,5.029,2.241,2.241,0,0,0,.129,1.008,15,15,0,0,0,2.978,4.37l16.243,19.7a48.159,48.159,0,0,0,8.177,7.175q.088.055.173.118a39.423,39.423,0,0,0,5.42,3.535,2.261,2.261,0,0,1,.757.552l2.571,2.864a.118.118,0,0,0,.167.009l15.294-13.652-1.505-1.686a2.26,2.26,0,0,1-.574-1.469l-.133-8.32-15.65-3.255c-.359-.075-.81-.185-1.17-.254-.323-.062-1.1,3.326-9.071-.555" transform="translate(-946.526 -705.615)" fill="#edbe85"/>
        <path id="패스_17535" data-name="패스 17535" d="M1064.307,806.067l3.8-3.529a.79.79,0,0,0,.031-1.129l-1.973-2.041a3.1,3.1,0,0,0-3.986.146,3.692,3.692,0,0,0-1.255,3.737,6.164,6.164,0,0,0,1.644,2.1l.615.67a.791.791,0,0,0,1.12.045" transform="translate(-964.926 -726.546)" fill="#f5e0cd"/>
        <path id="패스_17536" data-name="패스 17536" d="M1519.394,828.194l-6.747-1.228L1511.184,835l6.747,1.228a4.1,4.1,0,1,0,1.463-8.038" transform="translate(-1374.61 -752.228)" fill="#3f4c51"/>
        <path id="패스_17537" data-name="패스 17537" d="M899.674,740.562s-3.943.406-3.976.651c-.041.305,3.145,2.5,3.145,2.5Z" transform="translate(-814.75 -673.633)" fill="#343f42"/>
        <rect id="사각형_5770" data-name="사각형 5770" width="28.78" height="3.166" transform="translate(126.265 117.566) rotate(-41.112)" fill="#fff"/>
        <path id="패스_17538" data-name="패스 17538" d="M1493.468,1175.3l-43.587,6.591-68.507-81.037-.018-.021,28.384-24.329Z" transform="translate(-1256.516 -979.212)" fill="#343f42"/>
        <path id="패스_17539" data-name="패스 17539" d="M1470.99,1300.651l-21.827,3.3-67.853-80.442.023-.018,14.192-12.164Z" transform="translate(-1256.473 -1101.854)" fill="#3f4c51"/>
        <path id="패스_17540" data-name="패스 17540" d="M1680.04,1136.708a1.228,1.228,0,1,1,.608,1.627,1.229,1.229,0,0,1-.608-1.627" transform="translate(-1528.106 -1033.323)" fill="#fff"/>
        <path id="패스_17541" data-name="패스 17541" d="M1709.5,1169.541a1.228,1.228,0,1,1,.608,1.627,1.228,1.228,0,0,1-.608-1.627" transform="translate(-1554.9 -1063.19)" fill="#fff"/>
        <path id="패스_17542" data-name="패스 17542" d="M1738.49,1203.388a1.228,1.228,0,1,1,.608,1.627,1.228,1.228,0,0,1-.608-1.627" transform="translate(-1581.273 -1093.977)" fill="#fff"/>
      </g>
    </g>
  </g>
</svg>
