<svg xmlns="http://www.w3.org/2000/svg" xmlns:xlink="http://www.w3.org/1999/xlink" width="128.262" height="25.536" viewBox="0 0 128.262 25.536">
  <defs>
    <clipPath id="clip-path">
      <path id="패스_17511" data-name="패스 17511" d="M2.05,11.578,5.681,7.833H9.568a4.684,4.684,0,0,0-.5.814,5.348,5.348,0,0,0-.5,2.327,4.357,4.357,0,0,0,.962,2.768,5.383,5.383,0,0,0,2.7,1.757c.171.055.346.105.519.149l.261.065a7.88,7.88,0,0,1,1.048.379,1.694,1.694,0,0,1,.5.3,1.139,1.139,0,0,1,.212.779,1.291,1.291,0,0,1-.357,1.011,1.125,1.125,0,0,1-.34.227,1.761,1.761,0,0,1-.711.131,1.444,1.444,0,0,1-.487-.077,1.031,1.031,0,0,1-.408-.262,1.59,1.59,0,0,1-.393-1.078l-.045-.967H8.14l.011,1.025a6.815,6.815,0,0,0,.046.732Zm13.474.112h3.07l-.069-1.079a5.746,5.746,0,0,0-.446-1.931,4.624,4.624,0,0,0-.48-.847h3.72l3.631,3.745-6.167,6.36a6.919,6.919,0,0,0,.067-.956,4.821,4.821,0,0,0-.958-2.988,5.643,5.643,0,0,0-2.672-1.851l-.013,0-.013,0c-.116-.038-.256-.08-.426-.127-.193-.054-.412-.112-.653-.172a5.365,5.365,0,0,1-1.1-.379.974.974,0,0,1-.242-.156.6.6,0,0,1-.118-.191.724.724,0,0,1-.04-.251,1.02,1.02,0,0,1,.267-.772.813.813,0,0,1,.169-.132l.035-.022a1.184,1.184,0,0,1,.94-.02l.008,0,.058.036a.853.853,0,0,1,.146.106.936.936,0,0,1,.277.677l.058.953Zm-2-10.154L16,4.351h-1.5V7.027a3.525,3.525,0,0,1,1.741.806c.044.039.089.076.132.117a3.489,3.489,0,0,1,.782,1.134,4.713,4.713,0,0,1,.363,1.591H15.524a1.953,1.953,0,0,0-.591-1.351,1.832,1.832,0,0,0-.322-.24c-.039-.024-.077-.05-.117-.071a2.174,2.174,0,0,0-1.944.054l-.025.017a1.815,1.815,0,0,0-.378.3,2.04,2.04,0,0,0-.55,1.476,1.736,1.736,0,0,0,.1.6,1.608,1.608,0,0,0,.313.519,1.832,1.832,0,0,0,.539.386,6.284,6.284,0,0,0,1.318.46c.24.06.446.114.625.164.148.041.278.08.384.115a4.633,4.633,0,0,1,2.206,1.509,3.813,3.813,0,0,1,.752,2.375,4.8,4.8,0,0,1-.632,2.512c-.044.074-.091.146-.14.218l-.947.977c-.068.05-.138.1-.21.143a4.164,4.164,0,0,1-1.413.553v.9L13.5,23.314l-.95-.98v-.913a4.056,4.056,0,0,1-1.339-.468c-.06-.034-.117-.07-.175-.107L9.782,19.553c-.036-.06-.071-.119-.1-.181a4.735,4.735,0,0,1-.514-2.2h1.908a2.575,2.575,0,0,0,.676,1.735,2.039,2.039,0,0,0,.8.515,2.463,2.463,0,0,0,.824.134,2.748,2.748,0,0,0,1.12-.218,2.14,2.14,0,0,0,.641-.431,2.321,2.321,0,0,0,.661-1.735,2.075,2.075,0,0,0-.485-1.471,2.636,2.636,0,0,0-.818-.533,8.858,8.858,0,0,0-1.211-.438l-.272-.067c-.159-.041-.312-.085-.46-.132a4.376,4.376,0,0,1-2.215-1.415,3.344,3.344,0,0,1-.747-2.144,4.326,4.326,0,0,1,.4-1.889,3.625,3.625,0,0,1,.723-1.019c.084-.083.172-.159.261-.233a3.752,3.752,0,0,1,1.58-.758V4.351h-1.5Zm0-1.536L12.76.867,10.286,3.682,8.806,5.366h2.73v.965c-.05.02-.1.042-.147.063H5.058L0,11.612,13.5,25.536,27,11.612,21.942,6.395H15.858c-.114-.052-.23-.1-.35-.145V5.366h2.73l-1.48-1.684L14.284.867Z" fill="#c22e06"/>
    </clipPath>
  </defs>
  <g id="logo" transform="translate(-16 -18.944)">
    <path id="패스_17991" data-name="패스 17991" d="M19.382-5.874V-3.52H14.894V3.1h-2.75V-3.52H7.876V3.1H5.126V-3.52H.638V-5.874Zm-9.328-5.1a2.285,2.285,0,0,1-.792.726,18.941,18.941,0,0,1-1.716.968q-.462.242-1.045.517t-1.188.55q-.6.275-1.21.539T2.97-7.194L1.826-9.482q1.166-.484,2.453-1.078t2.409-1.188a3.9,3.9,0,0,0,1.474-1.221,3.008,3.008,0,0,0,.44-1.683v-1.936h2.816v1.936a3.008,3.008,0,0,0,.44,1.683,3.9,3.9,0,0,0,1.474,1.221q1.122.594,2.409,1.188t2.453,1.078L17.072-7.238q-.528-.22-1.133-.484t-1.21-.539q-.6-.275-1.188-.55T12.5-9.328a16.162,16.162,0,0,1-1.661-.946,2.477,2.477,0,0,1-.759-.7Zm12.3,6.556v-8.822H20.416v-2.244H32.428v2.244H30.382v8.756L31.6-4.576l1.243-.088.2,2.222q-1.606.176-3.685.22t-4.279.044H20.2V-4.422Zm9.592-5.9h2.64v-6.974h2.794V3.168H34.584V-7.9h-2.64Zm-4.29-2.926H25.08v8.822h2.574ZM58.322-1.76V.594H39.578V-1.76ZM49.016-9.174a2.4,2.4,0,0,1-.737.8q-.561.429-1.4,1-.9.594-2.09,1.309T42.02-4.444l-1.364-2.2q1.21-.682,2.442-1.419t2.2-1.4a6.741,6.741,0,0,0,1.089-.88,3.855,3.855,0,0,0,.682-.935,3.985,3.985,0,0,0,.363-1.067,6.914,6.914,0,0,0,.11-1.3v-2.266h2.816v2.266a6.914,6.914,0,0,0,.11,1.3,3.985,3.985,0,0,0,.363,1.067,3.855,3.855,0,0,0,.682.935,6.741,6.741,0,0,0,1.089.88q.968.66,2.2,1.4t2.442,1.419L55.9-4.488q-1.584-.9-2.772-1.617T51.04-7.414q-.836-.572-1.331-.979a2.4,2.4,0,0,1-.671-.781ZM67.034-6.6V-8.008H61.622V-16.72h13.4v2.2H64.35v1.078H74.844v2.156H64.35v1.078H75.24v2.2H69.806V-6.6h7.986v2.222H59.048V-6.6ZM61.49-3.146H75.262V3.432H72.49V-.9h-11ZM97.262-1.76V.594H78.518V-1.76ZM87.956-9.174a2.4,2.4,0,0,1-.737.8q-.561.429-1.4,1-.9.594-2.09,1.309T80.96-4.444L79.6-6.644q1.21-.682,2.442-1.419t2.2-1.4a6.742,6.742,0,0,0,1.089-.88,3.855,3.855,0,0,0,.682-.935,3.985,3.985,0,0,0,.363-1.067,6.914,6.914,0,0,0,.11-1.3v-2.266H89.3v2.266a6.914,6.914,0,0,0,.11,1.3,3.985,3.985,0,0,0,.363,1.067,3.855,3.855,0,0,0,.682.935,6.742,6.742,0,0,0,1.089.88q.968.66,2.2,1.4t2.442,1.419L94.842-4.488q-1.584-.9-2.772-1.617T89.98-7.414q-.836-.572-1.331-.979a2.4,2.4,0,0,1-.671-.781Z" transform="translate(47 40)" fill="#c22e06"/>
    <g id="그룹_3899" data-name="그룹 3899" transform="translate(16 18.944)">
      <g id="그룹_3898" data-name="그룹 3898" clip-path="url(#clip-path)">
        <rect id="사각형_5685" data-name="사각형 5685" width="27" height="25.536" transform="translate(0)" fill="#c22e06"/>
      </g>
    </g>
  </g>
</svg>
