<svg xmlns="http://www.w3.org/2000/svg" width="45" height="18" viewBox="0 0 45 18">
  <g id="그룹_5859" data-name="그룹 5859" transform="translate(-34 -2149)">
    <path id="checkbox_circle_fill" data-name="checkbox circle fill" d="M9,18a8.812,8.812,0,0,1-4.536-1.224,9.111,9.111,0,0,1-3.24-3.24A8.812,8.812,0,0,1,0,9,8.812,8.812,0,0,1,1.224,4.464a9.111,9.111,0,0,1,3.24-3.24A8.812,8.812,0,0,1,9,0a8.812,8.812,0,0,1,4.536,1.224,9.111,9.111,0,0,1,3.24,3.24A8.812,8.812,0,0,1,18,9a8.812,8.812,0,0,1-1.224,4.536,9.111,9.111,0,0,1-3.24,3.24A8.812,8.812,0,0,1,9,18Zm-.9-5.4,6.372-6.372-1.278-1.26L8.1,10.062,5.562,7.506,4.284,8.784Z" transform="translate(34 2149)" fill="#c22e06"/>
    <path id="checkbox_circle_line" data-name="checkbox circle line" d="M9,18a8.812,8.812,0,0,1-4.536-1.224,9.111,9.111,0,0,1-3.24-3.24A8.812,8.812,0,0,1,0,9,8.812,8.812,0,0,1,1.224,4.464a9.111,9.111,0,0,1,3.24-3.24A8.812,8.812,0,0,1,9,0a8.812,8.812,0,0,1,4.536,1.224,9.111,9.111,0,0,1,3.24,3.24A8.812,8.812,0,0,1,18,9a8.812,8.812,0,0,1-1.224,4.536,9.111,9.111,0,0,1-3.24,3.24A8.812,8.812,0,0,1,9,18Zm0-1.8a7.016,7.016,0,0,0,3.636-.99,7.152,7.152,0,0,0,2.574-2.574,7.172,7.172,0,0,0,0-7.272A7.152,7.152,0,0,0,12.636,2.79a7.172,7.172,0,0,0-7.272,0A7.152,7.152,0,0,0,2.79,5.364a7.172,7.172,0,0,0,0,7.272A7.152,7.152,0,0,0,5.364,15.21,7.016,7.016,0,0,0,9,16.2Zm-.9-3.6L4.284,8.784,5.562,7.506,8.1,10.062l5.094-5.094,1.278,1.26Z" transform="translate(61 2149)" fill="#d3d3d3"/>
  </g>
</svg>
