<svg xmlns="http://www.w3.org/2000/svg" width="14" height="14" viewBox="0 0 14 14">
  <path id="search_line" data-name="search line" d="M11.051,10.073,14,13.022,13.022,14l-2.949-2.949a6.389,6.389,0,0,1-1.819,1,6.215,6.215,0,0,1-5.181-.489A6.191,6.191,0,0,1,.841,9.329,6.121,6.121,0,0,1,0,6.2,6.121,6.121,0,0,1,.841,3.073,6.191,6.191,0,0,1,3.073.841,6.121,6.121,0,0,1,6.2,0,6.121,6.121,0,0,1,9.329.841a6.191,6.191,0,0,1,2.232,2.232,6.215,6.215,0,0,1,.489,5.181A6.389,6.389,0,0,1,11.051,10.073Zm-1.392-.51a4.694,4.694,0,0,0,1.013-1.55A4.819,4.819,0,0,0,11.024,6.2a4.745,4.745,0,0,0-.661-2.439A4.694,4.694,0,0,0,8.64,2.039a4.828,4.828,0,0,0-4.878,0A4.694,4.694,0,0,0,2.039,3.762a4.828,4.828,0,0,0,0,4.878,4.694,4.694,0,0,0,1.722,1.722,4.745,4.745,0,0,0,2.439.661,4.819,4.819,0,0,0,1.812-.351,4.694,4.694,0,0,0,1.55-1.013Z" fill="#c22e06"/>
</svg>
